<?xml version="1.0" encoding="utf-8" standalone="yes"?>
<!DOCTYPE svg PUBLIC "-//W3C//DTD SVG 1.1//EN" "http://www.w3.org/Graphics/SVG/1.1/DTD/svg11.dtd">
<svg style="fill:none;stroke:none;fill-rule:evenodd;clip-rule:evenodd;stroke-linecap:round;stroke-linejoin:round;stroke-miterlimit:1.5;" version="1.1" xmlns="http://www.w3.org/2000/svg" xmlns:xlink="http://www.w3.org/1999/xlink" width="636" height="982" viewBox="0 0 636 982"><style class="text-font-style fontImports" data-font-family="Shantell Sans">@import url(https://fonts.googleapis.com/css2?family=Shantell+Sans:wght@300..800&amp;amp;display=block);</style><g id="items" style="isolation: isolate"><g id="blend" style="mix-blend-mode: normal"><g id="g-root-ro_zs6tu61hwtgy6-fill" data-item-order="0" transform="translate(172, 122)"></g><g id="g-root-ro_4l32j21hwuvb7-fill" data-item-order="0" transform="translate(402, 870)"></g><g id="g-root-ro_1d1s03y1hwkz5y-fill" data-item-order="0" transform="translate(14, 342)"></g><g id="g-root-ro_1qcm1e61hwme4p-fill" data-item-order="0" transform="translate(178, 342)"></g><g id="g-root-ro_zqxytq1hwqnm2-fill" data-item-order="0" transform="translate(354, 342)"></g><g id="g-root-ro_1uuxfv21hwfdhm-fill" data-item-order="0" transform="translate(202, 232)"></g><g id="g-root-ro_1qbd37y1hwtg5c-fill" data-item-order="0" transform="translate(402, 760)"></g><g id="g-root-ro_1qd8iha1hws0zx-fill" data-item-order="0" transform="translate(238, 760)"></g><g id="g-root-tx_architec_hrjs7i1hww8i2-fill" data-item-order="0" transform="translate(116, 38)"><g id="tx_architec_hrjs7i1hww8i2-fill-merged" stroke="none" fill="#484848" fill-opacity="1"><g><text style="font: bold 25px &quot;Shantell Sans&quot;, cursive; white-space: pre;" transform="translate(202, 28)" font-weight="bold" font-size="25px" font-family="'Shantell Sans', cursive"><tspan x="-186.24" y="17" dominant-baseline="ideographic">Architecture Lens Data Flow</tspan></text></g></g></g><g id="g-root-ro_mgqemm1hwns3o-fill" data-item-order="0" transform="translate(166, 470)"></g><g id="g-root-ro_1qduzke1hwp72f-fill" data-item-order="0" transform="translate(290, 650)"></g><g id="g-root-cu_vcdevi1hwuvif-fill" data-item-order="2" transform="translate(486, 814)"></g><g id="g-root-cu_1qehgni1hwutxo-fill" data-item-order="2" transform="translate(256, 176)"></g><g id="g-root-cu_1hiugem1hwuvia-fill" data-item-order="2" transform="translate(86, 204)"></g><g id="g-root-cu_1lynyj21hwuupz-fill" data-item-order="2" transform="translate(86, 286)"></g><g id="g-root-cu_18ntx8u1hwut58-fill" data-item-order="2" transform="translate(256, 286)"></g><g id="g-root-cu_1480f4e1hwutxo-fill" data-item-order="2" transform="translate(256, 286)"></g><g id="g-root-cu_zs6wzy1hwuupy-fill" data-item-order="2" transform="translate(392, 414)"></g><g id="g-root-cu_vcdevi1hwuvid-fill" data-item-order="2" transform="translate(392, 704)"></g><g id="g-root-cu_zs6wzy1hwuuq0-fill" data-item-order="2" transform="translate(310, 704)"></g><g id="g-root-cu_vcdevi1hwuvib-fill" data-item-order="2" transform="translate(310, 594)"></g><g id="g-root-cu_1480f4e1hwutxl-fill" data-item-order="2" transform="translate(256, 566)"></g><g id="g-root-cu_18ntx8u1hwut5a-fill" data-item-order="2" transform="translate(256, 414)"></g><g id="g-root-tx_develope_mcd30u1hwusy1-fill" data-item-order="1000000000" transform="translate(450, 885)"><g id="tx_develope_mcd30u1hwusy1-fill-merged" stroke="none" fill="#484848" fill-opacity="1"><g><text style="font: bold 20px &quot;Shantell Sans&quot;, cursive; white-space: pre;" transform="translate(10, 22)" font-weight="bold" font-size="20px" font-family="'Shantell Sans', cursive"><tspan x="2" y="13" dominant-baseline="ideographic">Developer</tspan></text></g></g></g><g id="g-root-tx_dependen_1utohou1hwnswa-fill" data-item-order="1000000000" transform="translate(214, 482)"><g id="tx_dependen_1utohou1hwnswa-fill-merged" stroke="none" fill="#484848" fill-opacity="1"><g><text style="font: bold 20px &quot;Shantell Sans&quot;, cursive; white-space: pre;" transform="translate(10, 46)" font-weight="bold" font-size="20px" font-family="'Shantell Sans', cursive"><tspan x="2" y="-11" dominant-baseline="ideographic">Dependenc</tspan><tspan x="2" y="13" dominant-baseline="ideographic">yGraphCac</tspan><tspan x="2" y="37" dominant-baseline="ideographic">he</tspan></text></g></g></g><g id="g-root-tx_rulecont_hyf05q1hwqnt4-fill" data-item-order="1000000000" transform="translate(402, 366)"><g id="tx_rulecont_hyf05q1hwqnt4-fill-merged" stroke="none" fill="#484848" fill-opacity="1"><g><text style="font: bold 20px &quot;Shantell Sans&quot;, cursive; white-space: pre;" transform="translate(10, 22)" font-weight="bold" font-size="20px" font-family="'Shantell Sans', cursive"><tspan x="2" y="13" dominant-baseline="ideographic">RuleContext</tspan></text></g></g></g><g id="g-root-tx_filescan_mdm1721hwmdjj-fill" data-item-order="1000000000" transform="translate(226, 354)"><g id="tx_filescan_mdm1721hwmdjj-fill-merged" stroke="none" fill="#484848" fill-opacity="1"><g><text style="font: bold 20px &quot;Shantell Sans&quot;, cursive; white-space: pre;" transform="translate(10, 34)" font-weight="bold" font-size="20px" font-family="'Shantell Sans', cursive"><tspan x="2" y="1" dominant-baseline="ideographic">File </tspan><tspan x="2" y="25" dominant-baseline="ideographic">Scanner</tspan></text></g></g></g><g id="g-root-tx_configlo_hxsj2m1hwl0xw-fill" data-item-order="1000000000" transform="translate(62, 354)"><g id="tx_configlo_hxsj2m1hwl0xw-fill-merged" stroke="none" fill="#484848" fill-opacity="1"><g><text style="font: bold 20px &quot;Shantell Sans&quot;, cursive; white-space: pre;" transform="translate(10, 34)" font-weight="bold" font-size="20px" font-family="'Shantell Sans', cursive"><tspan x="2" y="1" dominant-baseline="ideographic">Config </tspan><tspan x="2" y="25" dominant-baseline="ideographic">Loader</tspan></text></g></g></g><g id="g-root-ic_bloc_4nkyvi1hwp8ue-fill" data-item-order="1000000000" transform="translate(302, 662)"></g><g id="g-root-tx_orchestr_v9vij21hwp8ud-fill" data-item-order="1000000000" transform="translate(338, 665)"><g id="tx_orchestr_v9vij21hwp8ud-fill-merged" stroke="none" fill="#484848" fill-opacity="1"><g><text style="font: bold 20px &quot;Shantell Sans&quot;, cursive; white-space: pre;" transform="translate(10, 22)" font-weight="bold" font-size="20px" font-family="'Shantell Sans', cursive"><tspan x="2" y="13" dominant-baseline="ideographic">Orchestrator</tspan></text></g></g></g><g id="g-root-ic_rust_1ly1hfy1hwql8h-fill" data-item-order="1000000000" transform="translate(366, 363)"></g><g id="g-root-ic_f_4mc0pa1hwmfwo-fill" data-item-order="1000000000" transform="translate(190, 363)"></g><g id="g-root-ic_sett_4myhse1hwkzd1-fill" data-item-order="1000000000" transform="translate(26, 363)"></g><g id="g-root-ic_1_7rgr21hws0ec-fill" data-item-order="1000000000" transform="translate(250, 772)"></g><g id="g-root-tx_cli_18mkz2m1hwfegw-fill" data-item-order="1000000000" transform="translate(250, 247)"><g id="tx_cli_18mkz2m1hwfegw-fill-merged" stroke="none" fill="#484848" fill-opacity="1"><g><text style="font: bold 20px &quot;Shantell Sans&quot;, cursive; white-space: pre;" transform="translate(10, 22)" font-weight="bold" font-size="20px" font-family="'Shantell Sans', cursive"><tspan x="2" y="13" dominant-baseline="ideographic">CLI</tspan></text></g></g></g><g id="g-root-ic_text_5w1hq1hwterz-fill" data-item-order="1000000000" transform="translate(414, 772)"></g><g id="g-root-tx_plugins_hyf05q1hws16z-fill" data-item-order="1000000000" transform="translate(286, 775)"><g id="tx_plugins_hyf05q1hws16z-fill-merged" stroke="none" fill="#484848" fill-opacity="1"><g><text style="font: bold 20px &quot;Shantell Sans&quot;, cursive; white-space: pre;" transform="translate(10, 22)" font-weight="bold" font-size="20px" font-family="'Shantell Sans', cursive"><tspan x="2" y="13" dominant-baseline="ideographic">Plugins</tspan></text></g></g></g><g id="g-root-tx_reporter_mcd30u1hwtfk6-fill" data-item-order="1000000000" transform="translate(450, 775)"><g id="tx_reporter_mcd30u1hwtfk6-fill-merged" stroke="none" fill="#484848" fill-opacity="1"><g><text style="font: bold 20px &quot;Shantell Sans&quot;, cursive; white-space: pre;" transform="translate(10, 22)" font-weight="bold" font-size="20px" font-family="'Shantell Sans', cursive"><tspan x="2" y="13" dominant-baseline="ideographic">Reporter</tspan></text></g></g></g><g id="g-root-ic_chlo_94nf661hwff9l-fill" data-item-order="1000000000" transform="translate(214, 244)"></g><g id="g-root-tx_develope_1qehdhq1hwtgy4-fill" data-item-order="1000000000" transform="translate(220, 137)"><g id="tx_develope_1qehdhq1hwtgy4-fill-merged" stroke="none" fill="#484848" fill-opacity="1"><g><text style="font: bold 20px &quot;Shantell Sans&quot;, cursive; white-space: pre;" transform="translate(10, 22)" font-weight="bold" font-size="20px" font-family="'Shantell Sans', cursive"><tspan x="2" y="13" dominant-baseline="ideographic">Developer</tspan></text></g></g></g><g id="g-root-ic_pers_90wkni1hwuuiy-fill" data-item-order="1000000000" transform="translate(414, 882)"></g><g id="g-root-ic_code_18ntu321hwtg5h-fill" data-item-order="1000000000" transform="translate(184, 134)"></g><g id="g-root-ic_colu_zrkfwu1hwntoj-fill" data-item-order="1000000000" transform="translate(178, 503)"></g><g id="g-root-ro_zs6tu61hwtgy6-stroke" data-item-order="0" transform="translate(172, 122)"><g id="ro_zs6tu61hwtgy6-stroke" fill="none" stroke-linecap="round" stroke-linejoin="round" stroke-miterlimit="4" stroke="#484848" stroke-width="4" stroke-opacity="1"><g><path d="M 22 10L 166 10C 166 10 178 10 178 22L 178 52C 178 52 178 64 166 64L 22 64C 22 64 10 64 10 52L 10 22C 10 22 10 10 22 10M 22 10C 46.4 9.4 70.9 9.6 95.3 10C 118.9 10.4 142.4 10.1 166 10C 166 10 178.1 10 178 22C 177.9 32 176.6 42.1 178 52C 178 52 178 64.3 166 64C 142.8 63.5 119.4 65.4 96.2 64C 71.5 62.5 46.8 64.1 22 64C 22 64 8.4 63.9 10 52C 11.4 42.1 11.1 31.9 10 22C 10 22 10 10.3 22 10M 22 10C 27.9 10.1 33.9 10.7 39.8 10C 45.2 9.4 50.7 9.8 56.2 10C 62.4 10.2 68.6 11 74.7 10C 81 9 87.5 10.7 93.8 10C 99.8 9.3 106.2 12 111.9 10C 117.6 8 124.1 9.1 130.2 10C 136 10.9 142.1 10.6 148 10C 153.9 9.3 160.2 11.7 166 10C 166 10 181.2 10.4 178 22C 176.6 27.1 179.5 32.9 178 38C 176.7 42.5 179.4 47.6 178 52C 178 52 177.1 68.6 166 64C 159.5 61.3 151.8 65 144.8 64C 138.3 63 131.3 66.3 125.2 64C 118.9 61.7 111.6 62.4 105.1 64C 98 65.8 90.4 62.9 83.1 64C 76.5 65 69.7 63.9 63 64C 55.8 64.1 48.7 63.8 41.6 64C 35.1 64.2 28.5 64.5 22 64C 22 64 9.3 64 10 52C 10.6 42 8.3 31.9 10 22C 10 22 10.2 12.1 22 10"></path></g></g></g><g id="g-root-ro_4l32j21hwuvb7-stroke" data-item-order="0" transform="translate(402, 870)"><g id="ro_4l32j21hwuvb7-stroke" fill="none" stroke-linecap="round" stroke-linejoin="round" stroke-miterlimit="4" stroke="#484848" stroke-width="4" stroke-opacity="1"><g><path d="M 22 10L 166 10C 166 10 178 10 178 22L 178 52C 178 52 178 64 166 64L 22 64C 22 64 10 64 10 52L 10 22C 10 22 10 10 22 10M 22 10C 36.5 8.7 51.2 11.8 65.7 10C 83.4 7.8 101.5 10.8 119.4 10C 134.9 9.3 150.5 10.9 166 10C 166 10 177.7 10 178 22C 178.3 32 178.7 42 178 52C 178 52 178 64.5 166 64C 150.8 63.3 135.5 64 120.2 64C 105.1 64 90 64.6 74.9 64C 57.3 63.3 39.6 62.8 22 64C 22 64 9.5 64 10 52C 10.4 42 8.8 31.9 10 22C 10 22 10.1 11.8 22 10M 22 10C 32.5 9.2 43.8 6.2 53.6 10C 61.7 13.2 71.8 6.7 79.9 10C 88.6 13.5 99.4 13.3 108.2 10C 118.1 6.3 129.3 10.2 139.9 10C 148.6 9.8 157.5 8 166 10C 166 10 177.4 10 178 22C 178.5 32 178.3 42 178 52C 178 52 177.5 67.5 166 64C 161.9 62.7 157.3 64.3 153 64C 148.1 63.7 143.1 63.9 138.1 64C 133.2 64.1 128.2 63 123.4 64C 119.1 64.9 114.5 64.2 110 64C 105.4 63.8 100.8 64.3 96.2 64C 91.7 63.8 87.1 63.6 82.6 64C 77.6 64.5 72.2 62.3 67.3 64C 62.3 65.7 56.7 64.2 51.4 64C 46.2 63.8 40.9 64.8 35.7 64C 31.2 63.3 26.5 64.8 22 64C 22 64 9.7 64 10 52C 10.3 42 7.9 31.8 10 22C 10 22 10.8 5.7 22 10"></path></g></g></g><g id="g-root-ro_1d1s03y1hwkz5y-stroke" data-item-order="0" transform="translate(14, 342)"><g id="ro_1d1s03y1hwkz5y-stroke" fill="none" stroke-linecap="round" stroke-linejoin="round" stroke-miterlimit="4" stroke="#484848" stroke-width="4" stroke-opacity="1"><g><path d="M 22 10L 142 10C 142 10 154 10 154 22L 154 70C 154 70 154 82 142 82L 22 82C 22 82 10 82 10 70L 10 22C 10 22 10 10 22 10M 22 10C 41.1 10.5 60.2 10.9 79.2 10C 100.1 9 121.1 10.5 142 10C 142 10 155 10 154 22C 152.6 37.9 155.5 54.1 154 70C 154 70 154 81.8 142 82C 128.6 82.2 115.2 83.9 101.9 82C 88 80 73.8 83.8 59.9 82C 47.4 80.4 34.5 83.5 22 82C 22 82 10.5 82 10 70C 9.3 54 8.3 37.9 10 22C 10 22 10 10 22 10M 22 10C 27.9 11.8 34.3 10.9 40.4 10C 47.4 9 54.9 11.9 61.7 10C 68.4 8.2 75.7 11.3 82.5 10C 89.2 8.7 96.5 12.1 103 10C 109 8.1 116.1 7.6 121.9 10C 128.1 12.5 135.5 11.5 142 10C 142 10 153.9 10 154 22C 154.1 27.6 154.4 33.3 154 38.9C 153.6 43.6 153 48.5 154 53.1C 155.2 58.6 152.9 64.5 154 70C 154 70 153.7 79.4 142 82C 132.1 84.2 121.7 81.9 111.5 82C 101.9 82.1 91.8 78.8 82.8 82C 74.2 85.1 64.5 81.5 55.3 82C 44.2 82.6 33 80.7 22 82C 22 82 11.9 81.9 10 70C 9.2 64.6 9.8 59.1 10 53.7C 10.2 48.4 8.8 42.9 10 37.7C 11.2 32.6 9.6 27.2 10 22C 10 22 10 10.6 22 10"></path></g></g></g><g id="g-root-ro_1qcm1e61hwme4p-stroke" data-item-order="0" transform="translate(178, 342)"><g id="ro_1qcm1e61hwme4p-stroke" fill="none" stroke-linecap="round" stroke-linejoin="round" stroke-miterlimit="4" stroke="#484848" stroke-width="4" stroke-opacity="1"><g><path d="M 22 10L 154 10C 154 10 166 10 166 22L 166 70C 166 70 166 82 154 82L 22 82C 22 82 10 82 10 70L 10 22C 10 22 10 10 22 10M 22 10C 43.5 9.1 65 10.4 86.5 10C 109 9.5 131.5 9.5 154 10C 154 10 165.5 10 166 22C 166.6 38 165.4 54 166 70C 166 70 166 82.5 154 82C 133 81.2 112 80.2 91.1 82C 68.1 83.9 45 82.9 22 82C 22 82 8.5 81.9 10 70C 12.1 54.1 8.7 38 10 22C 10 22 10 10.1 22 10M 22 10C 29.8 10.7 37.9 8.3 45.5 10C 52.2 11.5 59.3 8.5 66 10C 73.4 11.6 81.1 9.3 88.7 10C 96 10.6 103.4 11 110.7 10C 118.4 9 126.4 11.8 134 10C 140.5 8.5 147.5 8.6 154 10C 154 10 167.8 10.1 166 22C 164.8 29.7 163.9 37.8 166 45.2C 168.3 53.2 169 62.3 166 70C 166 70 165.4 85.8 154 82C 147.7 79.9 140.4 83.8 133.9 82C 126.7 80 118.6 84.3 111.4 82C 104.2 79.7 96.2 83 88.7 82C 80.6 80.9 72 79.5 64.3 82C 57.5 84.2 49.6 84.4 42.9 82C 36.3 79.6 29 82.2 22 82C 22 82 8.1 81.8 10 70C 11.4 61.4 9 52.5 10 43.9C 10.8 36.6 11 29.2 10 22C 10 22 10.2 8 22 10"></path></g></g></g><g id="g-root-ro_zqxytq1hwqnm2-stroke" data-item-order="0" transform="translate(354, 342)"><g id="ro_zqxytq1hwqnm2-stroke" fill="none" stroke-linecap="round" stroke-linejoin="round" stroke-miterlimit="4" stroke="#484848" stroke-width="4" stroke-opacity="1"><g><path d="M 22 10L 190 10C 190 10 202 10 202 22L 202 70C 202 70 202 82 190 82L 22 82C 22 82 10 82 10 70L 10 22C 10 22 10 10 22 10M 22 10C 37 8.5 52.2 9.7 67.4 10C 82.3 10.2 97.2 10.2 112.1 10C 124.1 9.8 136.2 11.9 148 10C 161.9 7.8 176.1 8.2 190 10C 190 10 201.8 10 202 22C 202.3 38 202.8 54 202 70C 202 70 202 82.9 190 82C 178.9 81.2 167.6 82.8 156.5 82C 144.3 81.1 131.9 83.8 119.9 82C 108.5 80.3 96.9 80.6 85.5 82C 75.1 83.3 64.5 81.9 54 82C 43.4 82.1 32.7 82.1 22 82C 22 82 8.4 81.9 10 70C 12.1 54.1 11.5 37.9 10 22C 10 22 10 9.8 22 10M 22 10C 27.1 11.2 32.5 9.7 37.8 10C 42.9 10.3 48.4 11.6 53.3 10C 58.5 8.3 64.4 9.9 69.9 10C 75.3 10.1 80.7 8.9 85.9 10C 90.4 11 95.3 11.3 99.8 10C 104.8 8.5 110.5 11.3 115.7 10C 120.5 8.8 125.6 10.5 130.6 10C 135.5 9.5 140.6 9.5 145.6 10C 150.7 10.5 155.9 9 161 10C 165.9 11 171.5 11.9 176.2 10C 180.5 8.3 185.4 10.1 190 10C 190 10 200.3 10.1 202 22C 203.1 29.5 200.8 37.2 202 44.7C 203.3 53 200.9 61.6 202 70C 202 70 201.9 80.3 190 82C 183.4 83 176.6 83.5 170.1 82C 162.7 80.3 154.8 80.8 147.3 82C 140.4 83.1 133.1 80 126.4 82C 119.4 84.1 111.8 82.6 104.6 82C 97.1 81.4 89.5 82.7 82 82C 75.8 81.4 69.5 82 63.3 82C 57 82 50.5 83.3 44.4 82C 37.1 80.4 29.5 82 22 82C 22 82 11.1 81.9 10 70C 9.3 62.1 10.9 54.2 10 46.3C 9.1 38.3 13 29.5 10 22C 10 22 10.7 13.9 22 10"></path></g></g></g><g id="g-root-ro_1uuxfv21hwfdhm-stroke" data-item-order="0" transform="translate(202, 232)"><g id="ro_1uuxfv21hwfdhm-stroke" fill="none" stroke-linecap="round" stroke-linejoin="round" stroke-miterlimit="4" stroke="#484848" stroke-width="4" stroke-opacity="1"><g><path d="M 22 10L 106 10C 106 10 118 10 118 22L 118 52C 118 52 118 64 106 64L 22 64C 22 64 10 64 10 52L 10 22C 10 22 10 10 22 10M 22 10C 50 9.4 78 11.2 106 10C 106 10 119.1 10.1 118 22C 117.1 32 116.1 42.2 118 52C 118 52 118 64.7 106 64C 91.3 63.2 76.5 64.6 61.7 64C 48.5 63.5 35.2 62.6 22 64C 22 64 8.7 63.9 10 52C 11.1 42.1 9.2 32 10 22C 10 22 10 9.9 22 10M 22 10C 28.5 11.1 35.2 11.1 41.6 10C 48.6 8.8 56 11.9 62.7 10C 69.9 8 77.9 11.6 85.2 10C 92 8.5 99.1 10 106 10C 106 10 116.5 10.1 118 22C 118.6 27 117.1 32.2 118 37.2C 118.9 42 119.6 47.3 118 52C 118 52 117.9 65.4 106 64C 101.4 63.5 96.7 64.9 92.2 64C 87.5 63 82.4 63.7 77.5 64C 73 64.3 68.4 63.9 63.8 64C 59.2 64.1 54.5 63.7 49.9 64C 45.5 64.2 41 64.3 36.6 64C 31.8 63.6 26.8 64.7 22 64C 22 64 14.4 63.1 10 52C 6.3 42.7 10.8 32 10 22C 10 22 10 10 22 10"></path></g></g></g><g id="g-root-ro_1qbd37y1hwtg5c-stroke" data-item-order="0" transform="translate(402, 760)"><g id="ro_1qbd37y1hwtg5c-stroke" fill="none" stroke-linecap="round" stroke-linejoin="round" stroke-miterlimit="4" stroke="#484848" stroke-width="4" stroke-opacity="1"><g><path d="M 22 10L 166 10C 166 10 178 10 178 22L 178 52C 178 52 178 64 166 64L 22 64C 22 64 10 64 10 52L 10 22C 10 22 10 10 22 10M 22 10C 45.6 10.6 69.2 10.3 92.7 10C 117.2 9.6 141.6 10.1 166 10C 166 10 177.9 10 178 22C 178.1 32 178.3 42 178 52C 178 52 178 63.6 166 64C 142.9 64.7 119.6 65.8 96.5 64C 71.8 62.1 46.8 62 22 64C 22 64 8.6 63.9 10 52C 11.2 42.1 12 31.8 10 22C 10 22 10.1 11.4 22 10M 22 10C 30.6 8.9 39.9 13.1 47.9 10C 57.6 6.3 68.7 9 79 10C 88.6 10.9 98.3 10.9 107.8 10C 117 9.2 126.4 11.6 135.4 10C 145.5 8.2 156 12 166 10C 166 10 178.1 10 178 22C 178 26.6 178.1 31.3 178 35.9C 177.8 41.2 177.3 46.7 178 52C 178 52 177.4 67.8 166 64C 160.9 62.3 155.3 64.1 150 64C 144.8 63.9 139.6 63.6 134.5 64C 129.7 64.4 124.6 65.6 120 64C 114.6 62.2 108.5 65.4 103 64C 98.2 62.8 92.8 65.7 88.2 64C 82.8 62 76.3 62.2 70.9 64C 65.9 65.7 60.3 65 55.1 64C 49.9 63 44.4 63.7 39 64C 33.4 64.3 27.7 63.8 22 64C 22 64 8 63.8 10 52C 11.7 42.1 6.4 31.3 10 22C 10 22 10.2 8 22 10"></path></g></g></g><g id="g-root-ro_1qd8iha1hws0zx-stroke" data-item-order="0" transform="translate(238, 760)"><g id="ro_1qd8iha1hws0zx-stroke" fill="none" stroke-linecap="round" stroke-linejoin="round" stroke-miterlimit="4" stroke="#484848" stroke-width="4" stroke-opacity="1"><g><path d="M 22 10L 142 10C 142 10 154 10 154 22L 154 52C 154 52 154 64 142 64L 22 64C 22 64 10 64 10 52L 10 22C 10 22 10 10 22 10M 22 10C 36.3 12 51 9.1 65.4 10C 79 10.9 92.8 8.5 106.4 10C 118.2 11.3 130.2 9.5 142 10C 142 10 153.8 10 154 22C 154.2 32 154 42 154 52C 154 52 154 64.1 142 64C 127.5 63.9 112.8 65.5 98.4 64C 86.9 62.8 75.2 63.2 63.7 64C 49.8 65 35.9 63.4 22 64C 22 64 10.6 64 10 52C 9.5 42 10.1 32 10 22C 10 22 10.1 11.6 22 10M 22 10C 32.4 13.2 44.4 6.4 54.7 10C 64.3 13.4 75.5 12.9 85.3 10C 94.6 7.3 104.7 10.2 114.3 10C 123.6 9.8 132.8 9.2 142 10C 142 10 156.6 10.3 154 22C 152.8 27.3 154.7 32.9 154 38.3C 153.4 42.8 155.6 47.7 154 52C 154 52 153.9 62.5 142 64C 136.3 64.7 130.4 64.8 124.7 64C 119 63.2 113 65.4 107.4 64C 101.4 62.5 94.9 62.5 89 64C 83.8 65.3 78.2 63.4 72.9 64C 66.7 64.7 60.5 64.1 54.3 64C 48.5 63.9 42.6 64.6 36.8 64C 31.9 63.5 26.8 65.3 22 64C 22 64 11.2 63.9 10 52C 9.5 47.2 9.7 42.3 10 37.5C 10.3 32.4 11.8 26.9 10 22C 10 22 10.1 11.6 22 10"></path></g></g></g><g id="g-root-tx_architec_hrjs7i1hww8i2-stroke" data-item-order="0" transform="translate(116, 38)"></g><g id="g-root-ro_mgqemm1hwns3o-stroke" data-item-order="0" transform="translate(166, 470)"><g id="ro_mgqemm1hwns3o-stroke" fill="none" stroke-linecap="round" stroke-linejoin="round" stroke-miterlimit="4" stroke="#484848" stroke-width="4" stroke-opacity="1"><g><path d="M 22 10L 178 10C 178 10 190 10 190 22L 190 94C 190 94 190 106 178 106L 22 106C 22 106 10 106 10 94L 10 22C 10 22 10 10 22 10M 22 10C 35.6 10.9 49.3 9.4 62.9 10C 74.8 10.5 86.8 8.4 98.7 10C 112.3 11.9 126.2 10.5 140 10C 152.7 9.5 165.5 8.2 178 10C 178 10 189 10 190 22C 192.1 45.9 190.4 70 190 94C 190 94 189.9 104.9 178 106C 159.9 107.6 141.6 104.6 123.4 106C 105.1 107.4 86.6 104.8 68.2 106C 52.9 107 37.4 106.1 22 106C 22 106 9.3 106 10 94C 10.7 82.4 10.5 70.7 10 59.1C 9.5 46.7 8.9 34.3 10 22C 10 22 10 10.9 22 10M 22 10C 28.9 11 36.1 9.2 43 10C 49.3 10.7 56 7.8 61.9 10C 68.1 12.3 75.1 10.8 81.6 10C 88.5 9.2 95.8 12 102.4 10C 108.6 8.2 115.5 10.7 121.9 10C 127.9 9.3 133.9 10.6 139.8 10C 146 9.4 152.3 8.7 158.3 10C 164.7 11.4 171.6 11.4 178 10C 178 10 188.9 10.1 190 22C 190.5 27.7 190.9 33.6 190 39.3C 189.1 44.9 189.9 50.7 190 56.4C 190.1 62.3 192.3 68.7 190 74.2C 187.5 80.3 189.6 87.4 190 94C 190 94 189.3 102 178 106C 170.6 108.6 162 103.8 154.5 106C 147.3 108.1 139.3 104 132.1 106C 125.2 108 117.3 108.3 110.5 106C 103.9 103.7 96.5 107.1 89.6 106C 82.8 104.9 75.3 103.6 68.9 106C 61.7 108.7 53.5 105.5 45.8 106C 37.9 106.5 29.8 104.5 22 106C 22 106 11.3 105.9 10 94C 9.5 89.6 10.7 85 10 80.6C 9.1 75.3 10.9 69.8 10 64.5C 9.1 59.5 11.3 54.2 10 49.2C 8.9 45.2 9 40.7 10 36.6C 11.1 31.8 8.9 26.7 10 22C 10 22 10.3 12.4 22 10"></path></g></g></g><g id="g-root-ro_1qduzke1hwp72f-stroke" data-item-order="0" transform="translate(290, 650)"><g id="ro_1qduzke1hwp72f-stroke" fill="none" stroke-linecap="round" stroke-linejoin="round" stroke-miterlimit="4" stroke="#484848" stroke-width="4" stroke-opacity="1"><g><path d="M 22 10L 202 10C 202 10 214 10 214 22L 214 52C 214 52 214 64 202 64L 22 64C 22 64 10 64 10 52L 10 22C 10 22 10 10 22 10M 22 10C 37.2 10.1 52.5 9.7 67.7 10C 81.2 10.3 94.6 10.6 108.1 10C 124.5 9.2 140.9 11.3 157.3 10C 172.1 8.8 187.1 9.2 202 10C 202 10 214 10 214 22C 214 32 212.1 42.2 214 52C 214 52 213.9 65.1 202 64C 187.8 62.7 173.4 62.9 159.2 64C 143.4 65.2 127.5 64 111.6 64C 98.2 64 84.7 64.7 71.2 64C 54.8 63.2 38.3 65.5 22 64C 22 64 10.9 64 10 52C 9.3 42 11.5 31.9 10 22C 10 22 10 9.5 22 10M 22 10C 29.9 8.5 38.5 12.4 46.2 10C 54.4 7.5 63.9 12.8 72.1 10C 80.2 7.2 89.2 9.5 97.8 10C 107 10.5 116.6 7.8 125.6 10C 133.7 12 142.3 8.6 150.5 10C 158.4 11.4 166.5 9 174.4 10C 183.6 11.2 192.8 9.9 202 10C 202 10 217.1 10.4 214 22C 211.4 31.6 216.2 42.2 214 52C 214 52 213.3 68 202 64C 195.5 61.7 187.7 66.6 181.3 64C 175.4 61.6 168.5 63.5 162.1 64C 154.9 64.6 147.5 65.3 140.4 64C 134.6 62.9 128.4 65 122.6 64C 115.5 62.8 108.2 63.1 101 64C 94.2 64.8 87 61.7 80.6 64C 74.3 66.2 66.8 61.5 60.6 64C 54.6 66.4 47.6 64.2 41.1 64C 34.7 63.8 28.2 62.7 22 64C 22 64 11.7 63.9 10 52C 8.6 42.1 9.4 32 10 22C 10 22 10 10.6 22 10"></path></g></g></g><g id="g-root-cu_vcdevi1hwuvif-stroke" data-item-order="2" transform="translate(486, 814)"><g id="cu_vcdevi1hwuvif-stroke" fill="none" stroke-linecap="round" stroke-linejoin="round" stroke-miterlimit="4" stroke="#484848" stroke-width="2" stroke-opacity="1"><g><path d="M 10 10L 10 38L 10 64M 10 10C 8.9 19.3 9.1 28.7 10 38C 10.9 46.6 9.6 55.3 10 64M 10 10C 9.5 14.7 10.5 19.5 10 24.2C 9.6 28.8 11.3 33.6 10 38C 7.6 46.3 11 55.4 10 64"></path><path d="M 3.5 58L 10 64.5L 16.5 58M 3.5 58C 5.3 60.5 7.3 63.1 10 64.5C 11.9 62.1 14.6 60.4 16.5 58M 3.5 58C 5.4 60.4 8 62.1 10 64.5C 12.4 62.6 13.8 59.5 16.5 58" stroke-dasharray="none"></path></g></g></g><g id="g-root-cu_1qehgni1hwutxo-stroke" data-item-order="2" transform="translate(256, 176)"><g id="cu_1qehgni1hwutxo-stroke" fill="none" stroke-linecap="round" stroke-linejoin="round" stroke-miterlimit="4" stroke="#484848" stroke-width="2" stroke-opacity="1"><g><path d="M 10 10L 10 38L 10 64M 10 10C 9.5 19.3 11 28.7 10 38C 9.1 46.6 8.7 55.4 10 64M 10 10C 9.4 19.3 12.4 29 10 38C 7.8 46.4 9.1 55.4 10 64"></path><path d="M 3.5 58L 10 64.5L 16.5 58M 3.5 58C 5.5 60.3 8.3 61.9 10 64.5C 11.9 62.1 15.1 60.7 16.5 58M 3.5 58C 5.5 60.3 8.5 61.8 10 64.5C 12.3 62.4 14.6 60.4 16.5 58" stroke-dasharray="none"></path></g></g></g><g id="g-root-cu_1hiugem1hwuvia-stroke" data-item-order="2" transform="translate(86, 204)"><g id="cu_1hiugem1hwuvia-stroke" fill="none" stroke-linecap="round" stroke-linejoin="round" stroke-miterlimit="4" stroke="#484848" stroke-width="2" stroke-opacity="1"><g><path d="M 10 220L 10 234L 10 248L 256 248L 502 248L 502 129L 502 10L 341 10L 180 10L 180 24L 180 36M 10 220C 10.1 224.7 9.6 229.4 10 234C 10.4 238.7 9.9 243.3 10 248C 30.4 249.4 50.9 247.4 71.3 248C 89.9 248.6 108.5 246.9 127.1 248C 146.9 249.2 166.8 249.5 186.6 248C 209.6 246.2 232.9 249.9 256 248C 277.1 246.2 298.4 246.2 319.5 248C 341.7 249.9 364.1 247.8 386.3 248C 407 248.2 427.6 248.1 448.2 248C 466.1 247.9 484.1 248.8 502 248C 501.6 227.1 500.3 206 502 185.1C 503.5 166.5 503.5 147.6 502 129C 500.6 110.7 503 92.3 502 74.1C 500.8 52.8 500.8 31.3 502 10C 485.9 10.9 469.6 11.7 453.5 10C 434.7 8.1 415.6 11.3 396.7 10C 378.2 8.7 359.5 8.4 341 10C 314.7 12.2 288.2 11 261.8 10C 234.5 9 207.2 11.4 180 10C 179.9 14.7 181.1 19.5 180 24C 179 27.9 179.5 32 180 36M 10 220C 8.4 224.4 10 229.3 10 234C 10 238.7 10.6 243.4 10 248C 20.7 250.2 31.9 247.4 42.8 248C 52.6 248.5 62.5 247.3 72.4 248C 83.5 248.8 94.7 249.1 105.8 248C 115 247.1 124.7 250.6 133.6 248C 143.7 245 154.8 245.9 165 248C 175 250 185.4 248.7 195.5 248C 205.9 247.3 216.4 249.1 226.7 248C 236.4 247 246.3 247.1 256 248C 261.6 248.5 267.5 246.4 272.9 248C 277.9 249.5 283.6 249.8 288.5 248C 293.5 246.2 299.2 249.1 304.4 248C 310.1 246.8 316 249.1 321.7 248C 326.8 247 332.1 247.4 337.3 248C 342.7 248.6 348.3 247.4 353.8 248C 359.5 248.6 365.6 249.7 371.2 248C 376 246.5 381.4 248.3 386.4 248C 391.9 247.7 397.4 249.1 402.7 248C 407.9 247 413.3 246.9 418.5 248C 423.5 249.1 428.9 249.1 434 248C 439.3 246.8 445.1 246.5 450.4 248C 455.9 249.6 462.2 246.3 467.7 248C 473.4 249.8 479.8 249.1 485.6 248C 491 246.9 496.7 249.1 502 248C 500.3 237.4 499 226.2 502 215.9C 504.6 207.2 504.5 197.4 502 188.7C 499 178.5 502.1 167.5 502 156.9C 501.9 147.6 498.5 137.6 502 129C 504.7 122.4 503.1 114.8 502 107.8C 501 101.4 500.8 94.7 502 88.3C 503.2 82.2 504.1 75.5 502 69.6C 499.7 63.1 501.7 55.7 502 48.8C 502.3 42.6 503 36.4 502 30.3C 500.9 23.6 502.1 16.8 502 10C 492.6 10.6 482.7 6.9 473.9 10C 466.2 12.6 457.8 10.1 449.7 10C 441.3 9.9 432.9 10.6 424.5 10C 416.1 9.4 407.7 9.4 399.3 10C 389.5 10.7 378.9 6.3 369.8 10C 360.9 13.6 350.1 6.8 341 10C 333.7 12.6 325.5 9.4 317.8 10C 310.1 10.6 301.9 12.5 294.5 10C 287.2 7.5 279 11.4 271.4 10C 264 8.7 256 12.5 248.9 10C 241.4 7.4 232.9 9.5 224.9 10C 217.3 10.5 209.7 9.4 202.1 10C 194.8 10.6 186.9 7.3 180 10C 181.6 14.4 180 19.3 180 24C 180 28 179.4 32 180 36"></path><path d="M 173.5 30L 180 36.5L 186.5 30M 173.5 30C 175.7 32.1 177.7 34.5 180 36.5C 182.6 34.8 184.4 32.2 186.5 30M 173.5 30C 174.8 32.8 177.8 34.3 180 36.5C 182.3 34.5 184.1 31.8 186.5 30" stroke-dasharray="none"></path></g></g></g><g id="g-root-cu_1lynyj21hwuupz-stroke" data-item-order="2" transform="translate(86, 286)"><g id="cu_1lynyj21hwuupz-stroke" fill="none" stroke-linecap="round" stroke-linejoin="round" stroke-miterlimit="4" stroke="#484848" stroke-width="2" stroke-opacity="1"><g><path d="M 180 10L 180 24L 180 38L 95 38L 10 38L 10 52L 10 64M 180 10C 180.7 14.6 179.3 19.4 180 24C 180.7 28.6 181.1 33.5 180 38C 151.7 37.5 123.3 39.4 95 38C 80.6 37.3 66.2 39 51.8 38C 37.9 37.1 23.9 38.7 10 38C 9.2 42.6 10.5 47.4 10 52C 9.5 56 9.6 60 10 64M 180 10C 179 14.6 181.6 19.6 180 24C 178.4 28.4 179.4 33.4 180 38C 172.5 39.6 164.5 39.5 157 38C 150.5 36.7 143.7 37.1 137.1 38C 130.7 38.9 124.1 38.2 117.6 38C 110.1 37.8 102.2 35.9 95 38C 87.7 40.2 79.6 39.9 72.2 38C 65.5 36.2 58.2 37.1 51.3 38C 44.6 38.9 37.4 40.3 31 38C 24.4 35.6 16.8 39.6 10 38C 10.4 42.7 10.6 47.4 10 52C 9.5 56 9.1 60.1 10 64"></path><path d="M 3.5 58L 10 64.5L 16.5 58M 3.5 58C 6.1 59.6 7.5 62.7 10 64.5C 12.3 62.5 13.9 59.6 16.5 58M 3.5 58C 5.1 60.6 8.7 61.7 10 64.5C 12.6 62.8 14.6 60.4 16.5 58" stroke-dasharray="none"></path></g></g></g><g id="g-root-cu_18ntx8u1hwut58-stroke" data-item-order="2" transform="translate(256, 286)"><g id="cu_18ntx8u1hwut58-stroke" fill="none" stroke-linecap="round" stroke-linejoin="round" stroke-miterlimit="4" stroke="#484848" stroke-width="2" stroke-opacity="1"><g><path d="M 10 10L 10 38L 10 64M 10 10C 10.6 19.3 9.1 28.7 10 38C 10.8 46.6 10.2 55.3 10 64M 10 10C 10 14.8 10.5 19.7 10 24.5C 9.5 28.9 9.4 33.5 10 38C 10.5 42.1 10.4 46.2 10 50.3C 9.6 54.8 9.5 59.5 10 64"></path><path d="M 3.5 58L 10 64.5L 16.5 58M 3.5 58C 6 59.7 7.3 63 10 64.5C 11.5 61.8 14.2 60 16.5 58M 3.5 58C 5.7 60.2 8.1 62.1 10 64.5C 12.4 62.6 14.6 60.4 16.5 58" stroke-dasharray="none"></path></g></g></g><g id="g-root-cu_1480f4e1hwutxo-stroke" data-item-order="2" transform="translate(256, 286)"><g id="cu_1480f4e1hwutxo-stroke" fill="none" stroke-linecap="round" stroke-linejoin="round" stroke-miterlimit="4" stroke="#484848" stroke-width="2" stroke-opacity="1"><g><path d="M 10 10L 10 24L 10 38L 107 38L 204 38L 204 52L 204 64M 10 10C 9.7 14.7 9.8 19.3 10 24C 10.2 28.7 9.8 33.3 10 38C 26.4 39.1 42.9 36.9 59.3 38C 75.2 39.1 91.1 37.8 107 38C 123 38.2 139.1 39 155.1 38C 171.4 37 187.7 37.7 204 38C 203.9 42.7 202.4 47.6 204 52C 205.4 55.8 203.2 60.1 204 64M 10 10C 9.2 14.6 8.4 19.6 10 24C 11.6 28.4 9.5 33.4 10 38C 16.9 39.6 24.6 40.5 31.1 38C 36.8 35.8 43.3 38.6 49.3 38C 55.1 37.4 60.9 37.2 66.7 38C 73.9 39 81.3 38.9 88.6 38C 94.7 37.2 101.1 36.3 107 38C 111.5 39.3 116.7 39.5 121.1 38C 125.5 36.5 130.5 37.7 135.2 38C 139.5 38.3 143.9 37.9 148.2 38C 152.6 38.1 157 38.3 161.4 38C 166 37.7 170.6 38.6 175.2 38C 180.3 37.4 185.7 39 190.8 38C 195.1 37.2 199.8 39.4 204 38C 204.3 42.7 203.7 47.3 204 52C 204.3 56 204.4 60 204 64"></path><path d="M 197.5 58L 204 64.5L 210.5 58M 197.5 58C 199.4 60.4 201.7 62.5 204 64.5C 206.4 62.5 208.5 60.3 210.5 58M 197.5 58C 199.3 60.5 201.2 63.2 204 64.5C 205.3 61.7 208.6 60.4 210.5 58" stroke-dasharray="none"></path></g></g></g><g id="g-root-cu_zs6wzy1hwuupy-stroke" data-item-order="2" transform="translate(392, 414)"><g id="cu_zs6wzy1hwuupy-stroke" fill="none" stroke-linecap="round" stroke-linejoin="round" stroke-miterlimit="4" stroke="#484848" stroke-width="2" stroke-opacity="1"><g><path d="M 68 10L 68 114L 68 218L 39 218L 10 218L 10 232L 10 244M 68 10C 66.5 27.8 68.6 45.7 68 63.5C 67.5 80.3 68.2 97.2 68 114C 67.6 148.7 67.4 183.3 68 218C 58.3 218.4 48.7 218.2 39 218C 29.3 217.8 19.5 216.3 10 218C 8.7 222.5 9.2 227.4 10 232C 10.7 235.9 9.1 240.1 10 244M 68 10C 67.5 15.6 67.6 21.3 68 26.9C 68.4 32.3 68.3 37.8 68 43.3C 67.7 49.4 69.6 55.7 68 61.6C 66.6 66.8 68.4 72.4 68 77.7C 67.5 84.1 66.7 90.6 68 96.9C 69.1 102.5 68.9 108.4 68 114C 66.5 122.9 70.4 132.4 68 141.2C 65.6 150.1 66.2 159.8 68 168.8C 69.6 176.8 65.9 185.5 68 193.5C 70.1 201.4 65 210.4 68 218C 58.4 218.8 48.4 215.8 39 218C 34.4 219.1 29.4 217.1 24.8 218C 19.9 219 14.9 217.8 10 218C 9.2 222.6 9.1 227.4 10 232C 10.8 235.9 10.3 240 10 244"></path><path d="M 3.5 238L 10 244.5L 16.5 238M 3.5 238C 5 240.7 8.2 242.1 10 244.5C 11.7 242 14.2 240 16.5 238M 3.5 238C 5.5 240.3 7.7 242.5 10 244.5C 12.7 243 14.2 240.1 16.5 238" stroke-dasharray="none"></path></g></g></g><g id="g-root-cu_vcdevi1hwuvid-stroke" data-item-order="2" transform="translate(392, 704)"><g id="cu_vcdevi1hwuvid-stroke" fill="none" stroke-linecap="round" stroke-linejoin="round" stroke-miterlimit="4" stroke="#484848" stroke-width="2" stroke-opacity="1"><g><path d="M 10 10L 10 24L 10 38L 57 38L 104 38L 104 52L 104 64M 10 10C 10.2 14.7 9.5 19.4 10 24C 10.5 28.6 9.3 33.4 10 38C 25.7 37.5 41.4 39.1 57 38C 72.6 36.9 88.3 37.6 104 38C 103.7 42.7 103.7 47.3 104 52C 104.3 56 105 60.1 104 64M 10 10C 10.1 14.7 9.3 19.4 10 24C 10.7 28.6 8.8 33.5 10 38C 14.9 37.1 19.9 38.1 24.8 38C 30.3 37.9 36.1 36.4 41.4 38C 46.4 39.5 52 39.3 57 38C 61.6 36.8 66.7 39.3 71.3 38C 76.2 36.6 81.5 37.8 86.6 38C 92.4 38.2 98.3 39.2 104 38C 104 42.7 102.6 47.6 104 52C 105.2 55.8 103.8 60 104 64"></path><path d="M 97.5 58L 104 64.5L 110.5 58M 97.5 58C 99.8 60 101.5 62.7 104 64.5C 105.4 61.8 108.7 60.5 110.5 58M 97.5 58C 99.7 60.1 101.5 62.7 104 64.5C 106.1 62.3 108.9 60.6 110.5 58" stroke-dasharray="none"></path></g></g></g><g id="g-root-cu_zs6wzy1hwuuq0-stroke" data-item-order="2" transform="translate(310, 704)"><g id="cu_zs6wzy1hwuuq0-stroke" fill="none" stroke-linecap="round" stroke-linejoin="round" stroke-miterlimit="4" stroke="#484848" stroke-width="2" stroke-opacity="1"><g><path d="M 92 10L 92 24L 92 38L 51 38L 10 38L 10 52L 10 64M 92 10C 90.6 14.5 91.8 19.3 92 24C 92.2 28.7 93.3 33.5 92 38C 78.4 36.7 64.5 40 51 38C 37.5 36 23.6 39 10 38C 10.1 42.7 9.6 47.3 10 52C 10.3 56 9.9 60 10 64M 92 10C 91.2 14.6 93.6 19.6 92 24C 90.4 28.4 91.9 33.3 92 38C 85.1 37.1 77.9 36.9 71 38C 64.4 39.1 57.5 39.5 51 38C 47 37.1 42.6 39.1 38.6 38C 34 36.8 28.9 36.3 24.5 38C 20 39.8 14.8 38.1 10 38C 9.9 42.7 11.4 47.5 10 52C 8.8 55.8 11.1 60.2 10 64"></path><path d="M 3.5 58L 10 64.5L 16.5 58M 3.5 58C 4.9 60.7 7.8 62.4 10 64.5C 12.8 63.3 13.8 59.4 16.5 58M 3.5 58C 5.3 60.5 8.7 61.7 10 64.5C 11.8 62 14.4 60.2 16.5 58" stroke-dasharray="none"></path></g></g></g><g id="g-root-cu_vcdevi1hwuvib-stroke" data-item-order="2" transform="translate(310, 594)"><g id="cu_vcdevi1hwuvib-stroke" fill="none" stroke-linecap="round" stroke-linejoin="round" stroke-miterlimit="4" stroke="#484848" stroke-width="2" stroke-opacity="1"><g><path d="M 10 230L 10 244L 10 258L 156 258L 302 258L 302 134L 302 10L 197 10L 92 10L 92 38L 92 64M 10 230C 10.2 234.7 11.2 239.5 10 244C 8.8 248.5 11.2 253.5 10 258C 21 259.8 32.2 258.1 43.4 258C 56.3 257.9 69.3 258.2 82.3 258C 95.7 257.8 109.3 256.5 122.7 258C 133.7 259.2 145 256.6 156 258C 172 260 188.3 256.3 204.4 258C 220.6 259.7 237 256.5 253.2 258C 269.4 259.5 285.8 258.6 302 258C 301.2 239.3 300.9 220.5 302 201.8C 303.3 179.2 303.1 156.6 302 134C 301.3 119.2 301.7 104.4 302 89.6C 302.3 75.4 301.4 61.1 302 46.8C 302.5 34.6 303.8 22.2 302 10C 283.3 10.7 264.5 11.1 245.8 10C 229.5 9.1 213.3 9.7 197 10C 178 10.4 159 8.5 140.1 10C 124.1 11.3 108 9.6 92 10C 91.2 19.3 90.7 28.8 92 38C 93.2 46.6 91.6 55.3 92 64M 10 230C 8.4 234.4 8.6 239.5 10 244C 11.4 248.5 8.2 253.7 10 258C 20.1 260 30.7 256.7 40.9 258C 51.4 259.3 62.6 261.5 72.5 258C 80.7 255.2 90.1 255.9 98.5 258C 107.5 260.2 117.2 259.6 126.3 258C 136 256.3 146.1 257.4 156 258C 164.7 258.5 173.6 256.2 182.1 258C 190 259.7 198.3 258.3 206.4 258C 214.9 257.7 223.6 256.2 232 258C 238.8 259.5 246.4 255.8 253 258C 261 260.6 270 260 278.1 258C 285.8 256.1 294.3 255.9 302 258C 299.3 250.3 299 241.1 302 233.5C 304.9 226.2 302.4 217.8 302 210C 301.6 202 303.3 193.9 302 186C 300.6 177.4 301.4 168.6 302 159.9C 302.6 151.3 303 142.6 302 134C 300.9 125.2 302.1 116.4 302 107.5C 301.9 100.1 301 92.6 302 85.2C 303.1 77.4 303 69.5 302 61.7C 300.8 53.1 300.4 44.2 302 35.7C 303.6 27.3 304.1 18.3 302 10C 290.2 13.8 277 12.2 264.8 10C 253.3 7.9 240.6 14.1 229.5 10C 219.3 6.2 207.8 9.4 197 10C 188.9 10.5 180.6 11.4 172.6 10C 163.5 8.4 154 9.6 144.7 10C 135.4 10.4 125.9 8.6 116.6 10C 108.5 11.3 100.1 8.4 92 10C 93.6 19.2 91.5 28.7 92 38C 92.4 46.7 89.4 55.7 92 64"></path><path d="M 85.5 58L 92 64.5L 98.5 58M 85.5 58C 87.7 60.1 90.5 61.8 92 64.5C 94.1 62.3 95.8 59.5 98.5 58M 85.5 58C 86.8 60.8 89.3 63.1 92 64.5C 94.4 62.6 97.3 60.8 98.5 58" stroke-dasharray="none"></path></g></g></g><g id="g-root-cu_1480f4e1hwutxl-stroke" data-item-order="2" transform="translate(256, 566)"><g id="cu_1480f4e1hwutxl-stroke" fill="none" stroke-linecap="round" stroke-linejoin="round" stroke-miterlimit="4" stroke="#484848" stroke-width="2" stroke-opacity="1"><g><path d="M 10 10L 10 38L 10 66L 78 66L 146 66L 146 80L 146 92M 10 10C 11.5 19.2 10.6 28.7 10 38C 9.4 47.3 11.2 56.7 10 66C 32.6 67.2 55.4 67.2 78 66C 89.4 65.4 100.9 65.5 112.3 66C 123.6 66.5 134.8 66.7 146 66C 146.2 70.7 146.6 75.4 146 80C 145.5 84 146.3 88 146 92M 10 10C 8.1 19.1 8.8 28.7 10 38C 10.6 42.7 8.6 47.6 10 52.1C 11.4 56.5 10.8 61.4 10 66C 18 65.2 26.3 63.8 34 66C 40.6 67.9 47.7 65.7 54.6 66C 62.4 66.4 70.2 65.7 78 66C 86.2 66.3 94.7 63.7 102.5 66C 110 68.2 118.3 64.5 126 66C 132.5 67.3 139.6 64 146 66C 147.5 70.4 144.8 75.5 146 80C 147 83.9 144.9 88.2 146 92"></path><path d="M 139.5 86L 146 92.5L 152.5 86M 139.5 86C 142.1 87.7 144.2 90 146 92.5C 147.5 89.8 149.9 87.7 152.5 86M 139.5 86C 141.2 88.6 143.6 90.6 146 92.5C 148.5 90.7 151.1 88.7 152.5 86" stroke-dasharray="none"></path></g></g></g><g id="g-root-cu_18ntx8u1hwut5a-stroke" data-item-order="2" transform="translate(256, 414)"><g id="cu_18ntx8u1hwut5a-stroke" fill="none" stroke-linecap="round" stroke-linejoin="round" stroke-miterlimit="4" stroke="#484848" stroke-width="2" stroke-opacity="1"><g><path d="M 10 10L 10 38L 10 64M 10 10C 11 19.3 10.4 28.7 10 38C 9.7 46.7 10.8 55.4 10 64M 10 10C 7 18.8 6.6 29.3 10 38C 11.7 42.3 10.8 47.3 10 51.9C 9.3 55.9 9.4 60 10 64"></path><path d="M 3.5 58L 10 64.5L 16.5 58M 3.5 58C 6.2 59.4 7.9 62.3 10 64.5C 12.3 62.5 13.9 59.5 16.5 58M 3.5 58C 4.8 60.8 7.2 63.3 10 64.5C 11.8 62 14 59.8 16.5 58" stroke-dasharray="none"></path></g></g></g><g id="g-root-tx_develope_mcd30u1hwusy1-stroke" data-item-order="1000000000" transform="translate(450, 885)"></g><g id="g-root-tx_dependen_1utohou1hwnswa-stroke" data-item-order="1000000000" transform="translate(214, 482)"></g><g id="g-root-tx_rulecont_hyf05q1hwqnt4-stroke" data-item-order="1000000000" transform="translate(402, 366)"></g><g id="g-root-tx_filescan_mdm1721hwmdjj-stroke" data-item-order="1000000000" transform="translate(226, 354)"></g><g id="g-root-tx_configlo_hxsj2m1hwl0xw-stroke" data-item-order="1000000000" transform="translate(62, 354)"></g><g id="g-root-ic_bloc_4nkyvi1hwp8ue-stroke" data-item-order="1000000000" transform="translate(302, 662)"><g id="ic_bloc_4nkyvi1hwp8ue-stroke" fill="none" stroke-linecap="round" stroke-linejoin="round" stroke-miterlimit="4" stroke="#484848" stroke-width="2" stroke-opacity="1"><g><path d="M 19.6875 28.25C 19.6875 29 19.1875 29.5 18.4375 29.5L 12.1875 29.5C 11.4375 29.5 10.9375 29 10.9375 28.25L 10.9375 21.25C 10.9375 20.5 11.4375 20 12.1875 20L 18.4375 20C 19.1875 20 19.6875 20.5 19.6875 21.25L 19.6875 28.25ZM 32.1875 28.25C 32.1875 29 31.6875 29.5 30.9375 29.5L 24.6875 29.5C 23.9375 29.5 23.4375 29 23.4375 28.25L 23.4375 21.25C 23.4375 20.5 23.9375 20 24.6875 20L 30.9375 20C 31.6875 20 32.1875 20.5 32.1875 21.25L 32.1875 28.25ZM 14.437412 16.124989C 16.937412 13.124988 20.687401 11.25 24.937374 11.25C 28.937376 11.25 32.562374 13 35.062374 15.625M 36.0625 33.125C 33.5625 36.5 29.5625 38.75 25.0625 38.75C 20.562525 38.75 16.5625 36.5 14.0625 33.125M 19.6875 24.749874L 23.4375 24.749874M 32.1875 24.749874L 39.0625 24.749874L 36.5625 22.249912M 10 10M 39.0625 24.749874L 36.5625 27.249874M 15.312537 26.12875C 16.074038 26.12875 16.691362 25.511499 16.691362 24.75C 16.691362 23.988499 16.074038 23.371126 15.312537 23.371126C 14.551038 23.371126 13.933713 23.988499 13.933713 24.75C 13.933713 25.511499 14.551038 26.12875 15.312537 26.12875ZM 27.8125 26.12875C 28.573999 26.12875 29.191376 25.511499 29.191376 24.75C 29.191376 23.988499 28.573999 23.371126 27.8125 23.371126C 27.051001 23.371126 26.43375 23.988499 26.43375 24.75C 26.43375 25.511499 27.051001 26.12875 27.8125 26.12875ZM 19.75 28.25C 19.875 29 19.125 29.5 18.5 29.5C 16.375 29.5 14.25 29.875 12.25 29.5C 11.5 29.375 11.125 29 11 28.25C 10.375 26 10.875 23.625 11 21.25C 11 20.5 11.375 20.125 12.25 20C 14.25 19.875 16.375 19.75 18.5 20C 19.125 20.125 19.5 20.5 19.75 21.25C 20.25 23.5 19.5 25.875 19.75 28.25M 32.25 28.25C 32.375 29 31.625 29.25 31 29.5C 29 30.125 26.75 29.125 24.75 29.5C 24 29.625 23.25 29 23.5 28.25C 23.875 26 23.875 23.5 23.5 21.25C 23.25 20.5 24 20.25 24.75 20C 26.625 19.25 28.875 19.5 31 20C 31.625 20.125 32.375 20.5 32.25 21.25C 31.5 23.5 32.125 25.875 32.25 28.25M 14.375 16.125C 17.125 13.375 20.75 11 24.875 11.25C 28.875 11.5 33.625 12.25 35 15.625M 36.125 33.125C 34 36.75 29.5 39.75 25.125 38.75C 20.625 37.75 17.125 36 14.125 33.125M 19.75 24.75C 21 24.75 22.25 24.5 23.5 24.75M 32.25 24.75C 34.5 24.875 36.875 24.25 39.125 24.75C 38 24.125 37 23.375 36.625 22.25M 10 10M 39.125 24.75C 38 25.375 37.5 26.625 36.625 27.25M 15.375 26.125C 16.125 26.125 17 25.5 16.75 24.75C 16.375 24 16 23.625 15.375 23.375C 14.625 23.125 13.75 24 13.875 24.75C 14.125 25.5 14.5 26.125 15.375 26.125M 27.875 26.125C 28.5 25.875 29 25.5 29.25 24.75C 29.375 24 28.625 23.5 27.875 23.375C 27.125 23.25 26.25 24 26.375 24.75C 26.625 25.5 27.125 25.875 27.875 26.125"></path></g></g></g><g id="g-root-tx_orchestr_v9vij21hwp8ud-stroke" data-item-order="1000000000" transform="translate(338, 665)"></g><g id="g-root-ic_rust_1ly1hfy1hwql8h-stroke" data-item-order="1000000000" transform="translate(366, 363)"><g id="ic_rust_1ly1hfy1hwql8h-stroke" fill="none" stroke-linecap="round" stroke-linejoin="round" stroke-miterlimit="4" stroke="#484848" stroke-width="2" stroke-opacity="1"><g><path d="M 39.162498 27.5C 39.220413 27.171597 39.144711 26.833668 38.952217 26.561363C 38.759727 26.289059 38.466412 26.104958 38.137501 26.049999L 37.449997 25.924999C 37.449997 25.625 37.449997 25.3125 37.449997 25C 37.449997 24.6875 37.449997 24.375 37.449997 24.075001L 38.137501 23.950001C 38.466412 23.895042 38.759727 23.710941 38.952217 23.438637C 39.144711 23.166332 39.220413 22.828403 39.162498 22.5C 39.041954 21.819828 38.39257 21.366377 37.712502 21.487499L 37.025002 21.612499C 36.851864 21.01557 36.638885 20.430925 36.387501 19.862501L 36.987499 19.525C 37.587936 19.179741 37.794876 18.413155 37.449753 17.812641C 37.10463 17.212128 36.338089 17.005013 35.737499 17.35L 35.137501 17.700001C 34.773685 17.191307 34.377007 16.70694 33.950001 16.25L 34.400002 15.725C 34.729656 15.195802 34.618942 14.504598 34.140488 14.104838C 33.662037 13.70508 32.962158 13.719014 32.5 14.1375L 32.0625 14.675C 31.540041 14.327007 30.992737 14.017842 30.424999 13.75L 30.6625 13.1C 30.778976 12.786827 30.765221 12.440059 30.62431 12.137094C 30.483397 11.834131 30.227053 11.600194 29.9125 11.4875C 29.263578 11.253078 28.547441 11.588767 28.3125 12.2375L 28.075001 12.9C 27.475721 12.743097 26.865755 12.630296 26.249998 12.5625L 26.25 11.875C 26.25 11.184644 25.690357 10.625 25 10.625C 24.309643 10.625 23.75 11.184644 23.75 11.875L 23.75 12.5625C 23.134243 12.630296 22.524277 12.743097 21.924999 12.9L 21.6875 12.2375C 21.452559 11.588767 20.736422 11.253078 20.0875 11.4875C 19.772947 11.600194 19.516605 11.834131 19.37569 12.137094C 19.234777 12.440059 19.221024 12.786827 19.3375 13.1L 19.575001 13.75C 19.015831 14.018921 18.476917 14.328067 17.9625 14.675L 17.5 14.1375C 17.040014 13.675911 16.302591 13.645139 15.805748 14.066802C 15.308905 14.488464 15.219354 15.221076 15.6 15.75L 16.049999 16.25C 15.623848 16.698893 15.227186 17.174887 14.8625 17.674999L 14.2625 17.325001C 13.661908 16.980013 12.895369 17.187128 12.550246 17.787642C 12.205124 18.388155 12.412065 19.154741 13.0125 19.5L 13.6125 19.8375C 13.361114 20.405924 13.148136 20.99057 12.975 21.587502L 12.2875 21.4625C 11.957244 21.404802 11.617653 21.482189 11.345001 21.677277C 11.072349 21.872364 10.889492 22.168797 10.8375 22.5C 10.779585 22.828403 10.855291 23.166332 11.047782 23.438637C 11.240273 23.710941 11.533589 23.895042 11.8625 23.950001L 12.55 24.075001C 12.55 24.375 12.55 24.6875 12.55 25C 12.55 25.3125 12.55 25.625 12.55 25.924999L 11.8625 26.049999C 11.533589 26.104958 11.240273 26.289059 11.047782 26.561363C 10.855291 26.833668 10.779585 27.171597 10.8375 27.5C 10.958044 28.180172 11.607431 28.633623 12.2875 28.512501L 12.975 28.387501C 13.148136 28.98443 13.361114 29.569077 13.6125 30.137501L 13.0125 30.474998C 12.412065 30.820257 12.205124 31.586845 12.550246 32.187355C 12.895369 32.787872 13.661908 32.994987 14.2625 32.649998L 14.8625 32.299999C 15.226314 32.808693 15.622993 33.29306 16.049999 33.75L 15.6 34.275002C 15.270346 34.804199 15.381061 35.495403 15.859511 35.895161C 16.337963 36.294922 17.03784 36.280983 17.5 35.862499L 17.9375 35.325001C 18.459961 35.672993 19.007265 35.982159 19.575001 36.25L 19.3375 36.900002C 19.221024 37.213173 19.234777 37.55994 19.37569 37.862907C 19.516605 38.165871 19.772947 38.399807 20.0875 38.512501C 20.736422 38.746922 21.452559 38.411232 21.6875 37.762497L 21.924999 37.099998C 22.522675 37.278 23.132662 37.411697 23.749998 37.499996L 23.75 38.1875C 23.75 38.877857 24.309643 39.4375 25 39.4375C 25.690357 39.4375 26.25 38.877857 26.25 38.1875L 26.25 37.5C 26.865755 37.432205 27.475721 37.319401 28.074999 37.162498L 28.3125 37.825001C 28.547441 38.473732 29.263578 38.809425 29.9125 38.575001C 30.227053 38.462303 30.483397 38.228371 30.62431 37.925407C 30.765221 37.622444 30.778976 37.275673 30.6625 36.962502L 30.424999 36.25C 30.984169 35.981079 31.523085 35.671936 32.037502 35.325001L 32.474998 35.862499C 32.920307 36.393974 33.712124 36.463875 34.243652 36.018631C 34.775177 35.573391 34.845177 34.781582 34.400002 34.25L 33.950001 33.75C 34.376152 33.301109 34.772812 32.825111 35.137501 32.325001L 35.737499 32.674999C 36.338127 33.02037 37.105011 32.813347 37.450249 32.212643C 37.795479 31.611937 37.588284 30.845097 36.987499 30.5L 36.387501 30.162498C 36.638885 29.594076 36.851864 29.00943 37.025002 28.4125L 37.712502 28.5375C 38.042755 28.595198 38.382347 28.517811 38.654999 28.322723C 38.92765 28.127636 39.110508 27.831203 39.162498 27.5ZM 33.4375 20.9375C 32.069866 18.100393 29.370642 16.138176 26.25 15.712501M 32.037498 31.25C 33.733685 29.635227 34.595268 27.331526 34.375 25C 34.372261 24.437868 34.317863 23.877176 34.212502 23.325001M 20.549999 33.25C 21.917007 33.988426 23.446297 34.375046 25 34.375C 26.733992 34.409508 28.433527 33.88826 29.850002 32.887501M 15.7875 23.325001C 15.682136 23.877176 15.62774 24.437868 15.625 25C 15.628094 27.56168 16.680693 30.010212 18.5375 31.775M 17.6875 19.15C 17.244761 19.700411 16.867247 20.30024 16.5625 20.937502M 26.25 15.712501C 24.632145 15.503868 22.98782 15.714789 21.474998 16.325001M 32.037498 31.25C 31.090321 30.77084 30.274904 30.067007 29.662498 29.199999C 29.227438 28.564465 28.917727 27.851702 28.750002 27.1C 28.686058 26.918503 28.606598 26.742855 28.512499 26.575001C 30.480383 25.806461 31.61797 23.741472 31.216047 21.667425C 30.814123 19.593378 28.987516 18.102812 26.875002 18.125C 21.425001 18.200001 21.0375 17.9 20.424999 18.450001C 19.8125 19 20.137499 18.862499 18.5375 31.775M 20.862499 33.412498L 21.625 26.875L 25 26.875C 25.618984 26.89596 26.156322 27.307751 26.3375 27.9C 26.633944 28.995464 27.162567 30.014345 27.887499 30.887499C 28.422567 31.669724 29.096142 32.347534 29.874998 32.887501M 22.375 20.625L 26.875 20.625C 27.910534 20.625 28.75 21.464466 28.75 22.5C 28.75 23.535534 27.910534 24.375 26.875 24.375L 21.875 24.375ZM 39.125 27.5C 39.375 27.25 39.125 26.875 39 26.5C 38.75 26.25 38.5 26.125 38.125 26C 37.875 26 37.625 26 37.5 25.875C 37.5 25.625 37.5 25.25 37.5 25C 37.375 24.75 37.5 24.375 37.5 24.125C 37.625 24 37.875 23.875 38.125 24C 38.5 24 38.75 23.75 39 23.5C 39.125 23.125 39.375 22.75 39.125 22.5C 38.875 21.875 38.375 21.25 37.75 21.5C 37.5 21.625 37.25 21.625 37 21.625C 37 21 36.625 20.5 36.375 19.875C 36.625 19.75 36.875 19.625 37 19.5C 37.5 19.125 37.875 18.375 37.5 17.875C 37 17.25 36.375 17.125 35.75 17.375C 35.5 17.5 35.25 17.5 35.125 17.75C 34.75 17.25 34.375 16.75 34 16.25C 34 16 34.375 16 34.375 15.75C 34.875 15.375 34.625 14.5 34.125 14.125C 33.625 13.625 32.875 13.625 32.5 14.125C 32.25 14.25 32.125 14.5 32.125 14.625C 31.625 14.25 31 13.875 30.375 13.75C 30.5 13.5 30.625 13.375 30.625 13.125C 30.75 12.75 30.625 12.5 30.625 12.125C 30.625 11.75 30.25 11.5 29.875 11.5C 29.25 11.5 28.75 11.75 28.375 12.25C 28.125 12.375 28.125 12.625 28.125 12.875C 27.5 12.75 26.875 12.75 26.25 12.5C 26.25 12.375 26.25 12.125 26.25 11.875C 26.125 11.25 25.625 10.375 25 10.625C 24.375 10.875 23.875 11.125 23.75 11.875C 23.75 12.125 23.75 12.375 23.75 12.625C 23.125 12.75 22.5 12.875 21.875 12.875C 21.875 12.75 21.75 12.5 21.75 12.25C 21.625 11.5 20.75 11.25 20.125 11.5C 19.75 11.625 19.625 11.875 19.375 12.125C 19.125 12.375 19.25 12.75 19.375 13.125C 19.375 13.375 19.375 13.625 19.625 13.75C 19 13.875 18.5 14.25 18 14.625C 17.875 14.5 17.625 14.375 17.5 14.125C 17 13.75 16.25 13.625 15.75 14.125C 15.25 14.5 15.25 15.25 15.625 15.75C 15.625 16 15.875 16.125 16 16.25C 15.625 16.625 15.125 17.125 14.875 17.625C 14.625 17.625 14.5 17.375 14.25 17.375C 13.625 17.125 12.625 17.125 12.5 17.75C 12.5 18.5 12.5 19.125 13 19.5C 13.25 19.625 13.5 19.75 13.625 19.875C 13.25 20.375 13.25 21 13 21.625C 12.75 21.625 12.5 21.375 12.25 21.5C 12 21.5 11.625 21.5 11.375 21.625C 11 21.875 10.75 22.125 10.875 22.5C 10.875 22.875 10.875 23.125 11 23.5C 11.25 23.75 11.5 24 11.875 24C 12.125 23.875 12.375 24.125 12.5 24.125C 12.5 24.375 12.625 24.75 12.5 25C 12.5 25.25 12.5 25.625 12.5 25.875C 12.375 25.875 12.125 26 11.875 26C 11.5 26.125 11.25 26.375 11 26.5C 10.75 26.75 10.75 27.25 10.875 27.5C 11.125 28.125 11.625 28.625 12.25 28.5C 12.5 28.5 12.75 28.375 13 28.375C 13.25 28.875 13.375 29.625 13.625 30.125C 13.375 30.25 13.25 30.5 13 30.5C 12.375 30.5 12.25 31.625 12.5 32.125C 12.875 32.75 13.625 33 14.25 32.625C 14.5 32.5 14.625 32.375 14.875 32.25C 15.25 32.875 15.875 33.125 16 33.75C 15.875 33.875 15.75 34.125 15.625 34.25C 15.375 34.875 15.5 35.375 15.875 35.875C 16.25 36.375 17.25 36.375 17.5 35.875C 17.75 35.75 17.75 35.5 18 35.375C 18.5 35.5 19.125 35.875 19.625 36.25C 19.625 36.5 19.375 36.75 19.375 36.875C 19.25 37.25 19.25 37.5 19.375 37.875C 19.5 38.25 19.75 38.375 20.125 38.5C 20.75 38.75 21.375 38.375 21.75 37.75C 21.75 37.5 21.875 37.375 21.875 37.125C 22.5 37.25 23.25 37.25 23.75 37.5C 23.75 37.75 23.75 38 23.75 38.25C 23.875 38.875 24.25 39.5 25 39.5C 25.75 39.375 26.5 38.875 26.25 38.25C 26.125 38 26.25 37.75 26.25 37.5C 26.875 37.5 27.5 37.5 28.125 37.125C 28.125 37.375 28.25 37.625 28.375 37.875C 28.5 38.5 29.25 38.875 29.875 38.625C 30.25 38.375 30.625 38.25 30.625 37.875C 30.625 37.625 30.875 37.25 30.625 37C 30.5 36.75 30.375 36.5 30.375 36.25C 31 36 31.5 35.625 32 35.375C 32.125 35.5 32.375 35.625 32.5 35.875C 32.875 36.375 33.625 36.375 34.25 36C 34.875 35.625 34.625 34.875 34.375 34.25C 34.375 34 34 34 34 33.75C 34.375 33.25 34.75 32.75 35.125 32.375C 35.375 32.5 35.625 32.5 35.75 32.625C 36.25 33.125 37.125 32.875 37.5 32.25C 37.75 31.625 37.625 30.875 37 30.5C 36.75 30.375 36.625 30.125 36.375 30.125C 36.625 29.625 36.625 28.875 37 28.375C 37.25 28.5 37.5 28.5 37.75 28.5C 38 28.625 38.375 28.5 38.625 28.375C 39 28.125 39 27.75 39.125 27.5M 33.5 21C 31.875 18.25 29.375 16.125 26.25 15.75M 32 31.25C 33.625 29.5 34.125 27.375 34.375 25C 34.375 24.5 34.5 23.875 34.25 23.375M 20.5 33.25C 21.625 34.375 23.5 34.25 25 34.375C 26.625 33.75 28.625 34.125 29.875 32.875M 15.75 23.375C 15.5 23.875 15.75 24.5 15.625 25C 15.375 27.5 16.625 30.125 18.5 31.75M 17.75 19.125C 17.25 19.75 17.125 20.5 16.625 21M 26.25 15.75C 24.75 15.125 22.625 15.25 21.5 16.375M 32 31.25C 31.25 30.625 30 30.125 29.625 29.25C 29.375 28.5 29.125 27.75 28.75 27.125C 28.625 27 28.625 26.75 28.5 26.625C 30.625 26.375 31.375 23.75 31.25 21.625C 31.125 19.5 28.875 18.625 26.875 18.125C 21.5 17 21 17.875 20.375 18.5C 19.875 19 19.875 18.875 18.5 31.75M 20.875 33.375C 21.5 31.25 20.875 28.875 21.625 26.875C 22.75 26.875 23.875 26.75 25 26.875C 25.625 27 26.125 27.375 26.375 27.875C 27 28.875 27.375 29.875 27.875 30.875C 28.625 31.5 29 32.625 29.875 32.875M 22.375 20.625C 23.875 20.75 25.375 20.375 26.875 20.625C 27.875 20.875 29 21.5 28.75 22.5C 28.5 23.5 27.875 24.125 26.875 24.375C 25.25 24.875 23.5 24.5 21.875 24.375C 21.625 23.125 22.375 21.875 22.375 20.625"></path></g></g></g><g id="g-root-ic_f_4mc0pa1hwmfwo-stroke" data-item-order="1000000000" transform="translate(190, 363)"><g id="ic_f_4mc0pa1hwmfwo-stroke" fill="none" stroke-linecap="round" stroke-linejoin="round" stroke-miterlimit="4" stroke="#484848" stroke-width="2" stroke-opacity="1"><g><path d="M 16.875 29.375L 16.875 21.25C 16.875 20.214466 17.714466 19.375 18.75 19.375L 21.875 19.375M 16.875 24.375L 20 24.375M 24.737499 35.400002C 24.562452 35.16206 24.562452 34.83794 24.737499 34.599998C 26.395893 32.210049 29.080719 30.738022 31.987499 30.625C 34.894279 30.738022 37.579109 32.210049 39.237499 34.599998C 39.425644 34.833481 39.425644 35.166519 39.237499 35.400002C 37.579109 37.789951 34.894279 39.261978 31.987499 39.375C 29.080719 39.261978 26.395893 37.789951 24.737499 35.400002ZM 35.474998 31.412498L 28.512501 38.587502M 21.875 35.625L 11.875 35.625C 11.184644 35.625 10.625 35.065353 10.625 34.375L 10.625 11.875C 10.625 11.184644 11.184644 10.625 11.875 10.625L 23.125 10.625L 29.375 16.875L 29.375 28.125M 23.125 10.625L 23.125 15.625C 23.125 16.315355 23.684643 16.875 24.375 16.875L 29.375 16.875M 16.875 29.375C 17.5 26.75 16.75 24 16.875 21.25C 16.875 20.25 17.75 19.5 18.75 19.375C 19.75 19.25 20.875 19.625 21.875 19.375M 16.875 24.375C 17.875 24.5 19 24.375 20 24.375M 24.75 35.375C 24.5 35.25 24.625 34.875 24.75 34.625C 26.125 32 29.125 30 32 30.625C 34.875 30.625 37.375 32.375 39.25 34.625C 39.5 34.75 39.5 35.25 39.25 35.375C 38 38 34.875 38.75 32 39.375C 29.375 38.125 25.625 38.125 24.75 35.375M 35.5 31.375C 33.125 33.875 30.75 36.125 28.5 38.625M 21.875 35.625C 18.5 35.75 15 36.75 11.875 35.625C 11.25 35.375 10.5 35 10.625 34.375C 11.625 26.875 11.125 19.375 10.625 11.875C 10.625 11.125 11.125 10.625 11.875 10.625C 15.625 10.625 19.375 10.875 23.125 10.625C 25.125 12.75 27.25 14.75 29.375 16.875C 29.375 20.625 28.875 24.375 29.375 28.125M 23.125 10.625C 22.875 12.25 23 14 23.125 15.625C 23.125 16.375 23.625 17 24.375 16.875C 26 16.625 27.75 16.75 29.375 16.875"></path></g></g></g><g id="g-root-ic_sett_4myhse1hwkzd1-stroke" data-item-order="1000000000" transform="translate(26, 363)"><g id="ic_sett_4myhse1hwkzd1-stroke" fill="none" stroke-linecap="round" stroke-linejoin="round" stroke-miterlimit="4" stroke="#484848" stroke-width="2" stroke-opacity="1"><g><path d="M 31.875 20.625L 31.875 17.3925C 31.874928 17.061007 31.743187 16.743116 31.508751 16.508749L 25.9925 10.99125C 25.758135 10.756813 25.440243 10.625071 25.108749 10.625L 11.875 10.625C 11.184644 10.625 10.625 11.184644 10.625 11.875L 10.625 21.875L 11.875 21.875L 11.875 25.625L 10.625 25.625L 10.625 38.125C 10.625 38.815353 11.184644 39.375 11.875 39.375L 23.75 39.375M 15.62625 14.375L 15.62625 20.625M 19.376249 14.375L 19.376249 20.625M 23.126251 14.375L 23.126251 20.625M 26.876251 16.875L 26.876251 21.875M 30.389999 31.289999C 30.389999 32.282043 31.19421 33.08625 32.186249 33.08625C 33.178295 33.08625 33.982502 32.282043 33.982502 31.290001C 33.982502 30.297958 33.178295 29.493752 32.186249 29.493752C 31.19421 29.493752 30.389999 30.297958 30.389999 31.290001ZM 33.712498 24.338749L 34.2425 26.078751C 34.423286 26.677902 35.037647 27.034279 35.647499 26.893751L 37.411251 26.485001C 38.097645 26.329557 38.805183 26.639778 39.155899 27.249941C 39.506615 27.860104 39.418549 28.627628 38.938751 29.1425L 37.703751 30.473749C 37.281197 30.933008 37.281197 31.63949 37.703747 32.098747L 38.938747 33.43C 39.418549 33.94487 39.506615 34.712395 39.155899 35.322559C 38.805183 35.932724 38.097645 36.242943 37.411251 36.087502L 35.647499 35.678749C 35.037647 35.538223 34.423286 35.894596 34.2425 36.493752L 33.712498 38.233749C 33.509945 38.907402 32.889694 39.368587 32.186249 39.368587C 31.482803 39.368587 30.862553 38.907402 30.66 38.233749L 30.125 36.5C 29.943674 35.900669 29.328917 35.544384 28.71875 35.685001L 26.955 36.09375C 26.268829 36.248413 25.561956 35.937912 25.211651 35.327957C 24.861347 34.71801 24.949373 33.950981 25.428751 33.436249L 26.6625 32.105C 27.085049 31.645739 27.085049 30.939259 26.662498 30.48L 25.428751 29.14875C 24.949373 28.634018 24.861347 27.866989 25.211651 27.25704C 25.561956 26.647091 26.268829 26.336588 26.955 26.491249L 28.71875 26.900002C 29.328917 27.040617 29.943674 26.684332 30.125 26.084999L 30.655001 24.344999C 30.853374 23.666721 31.474722 23.200075 32.181412 23.198629C 32.888103 23.197186 33.511356 23.661287 33.712498 24.338749ZM 31.875 20.625C 31.875 19.5 31.5 18.375 31.875 17.375C 32 17.125 31.625 16.75 31.5 16.5C 30.25 14.25 27.25 13.25 26 11C 25.875 10.75 25.5 10.625 25.125 10.625C 20.75 11.25 16.25 11 11.875 10.625C 11.125 10.625 10.5 11.25 10.625 11.875C 11.25 15.125 11.25 18.625 10.625 21.875C 11 22 11.5 21.75 11.875 21.875C 11.75 23.125 12 24.375 11.875 25.625C 11.5 25.625 11 25.625 10.625 25.625C 9.625 29.625 9.25 34.25 10.625 38.125C 10.875 38.75 11.25 39.625 11.875 39.375C 15.625 38 19.875 38.625 23.75 39.375M 15.625 14.375C 15.875 16.5 15.375 18.5 15.625 20.625M 19.375 14.375C 19 16.375 19.625 18.5 19.375 20.625M 23.125 14.375C 23.25 16.5 23 18.5 23.125 20.625M 26.875 16.875C 26.5 18.5 26.375 20.25 26.875 21.875M 30.375 31.25C 30.5 32.25 31.25 33 32.125 33.125C 33.125 33.125 34.125 32.25 34 31.25C 33.875 30.25 33.125 29.25 32.125 29.5C 31.25 29.75 30.75 30.375 30.375 31.25M 33.75 24.375C 33.875 24.875 34 25.5 34.25 26.125C 34.5 26.625 35.125 27.125 35.625 26.875C 36.25 26.625 36.875 26.5 37.375 26.5C 38.125 26.5 39 26.5 39.125 27.25C 39.25 28 39.625 28.875 39 29.125C 38.375 29.375 38.125 30 37.75 30.5C 37.25 31 37.125 31.75 37.75 32.125C 38.25 32.375 38.375 33.125 39 33.375C 39.5 33.75 39.625 34.75 39.125 35.375C 38.75 35.875 38.125 36.25 37.375 36.125C 36.875 35.875 36.25 35.75 35.625 35.625C 35 35.625 34.25 35.875 34.25 36.5C 34.25 37.125 34 37.75 33.75 38.25C 33.375 38.875 32.875 39.25 32.125 39.375C 31.5 39.5 30.625 38.875 30.625 38.25C 30.75 37.625 30.375 37.125 30.125 36.5C 29.875 35.875 29.375 35.75 28.75 35.625C 28.125 35.625 27.5 36 27 36.125C 26.25 36.25 25.75 35.875 25.25 35.375C 24.75 34.875 24.875 33.875 25.375 33.375C 25.875 33.125 26.375 32.625 26.625 32.125C 27 31.625 26.875 31 26.625 30.5C 26.375 29.875 25.625 29.75 25.375 29.125C 25.125 28.5 25 28 25.25 27.25C 25.375 26.625 26.25 26.375 27 26.5C 27.5 26.625 28.125 26.75 28.75 26.875C 29.25 27.125 29.875 26.625 30.125 26.125C 30.375 25.5 30.5 24.875 30.625 24.375C 30.75 23.625 31.5 23 32.125 23.25C 32.875 23.375 33.75 23.625 33.75 24.375"></path></g></g></g><g id="g-root-ic_1_7rgr21hws0ec-stroke" data-item-order="1000000000" transform="translate(250, 772)"><g id="ic_1_7rgr21hws0ec-stroke" fill="none" stroke-linecap="round" stroke-linejoin="round" stroke-miterlimit="4" stroke="#484848" stroke-width="2" stroke-opacity="1"><g><path d="M 11.875 10.63L 38.125 10.63C 38.125 10.63 39.375 10.63 39.375 11.88L 39.375 38.130001C 39.375 38.130001 39.375 39.380001 38.125 39.380001L 11.875 39.380001C 11.875 39.380001 10.625 39.380001 10.625 38.130001L 10.625 11.88C 10.625 11.88 10.625 10.63 11.875 10.63M 24.375 26.879999L 24.375 31.879999M 26.875 29.379999L 21.875 29.379999M 31.875 26.879999L 31.875 31.879999M 34.375 29.379999L 29.375 29.379999M 19.375 34.375C 16.613577 34.375 14.375 32.136425 14.375 29.375C 14.375 26.613577 16.613577 24.375 19.375 24.375M 11.875 10.625C 20.625 9.75 29.625 12.875 38.125 10.625C 38.125 10.625 39.625 10.625 39.375 11.875C 37.25 20.375 40.875 29.5 39.375 38.125C 39.375 38.125 39.375 39.25 38.125 39.375C 29.375 40.25 20.5 37.875 11.875 39.375C 11.875 39.375 10.25 39.25 10.625 38.125C 13.75 29.875 11.625 20.625 10.625 11.875C 10.625 11.875 10.625 10.625 11.875 10.625M 24.375 26.875C 24.125 28.5 24.5 30.25 24.375 31.875M 26.875 29.375C 25.375 28.75 23.5 29.625 21.875 29.375M 31.875 26.875C 31.5 28.5 32.25 30.25 31.875 31.875M 34.375 29.375C 32.75 29.25 31 29 29.375 29.375M 19.375 34.375C 16.75 35.25 14.875 32.125 14.375 29.375C 13.875 26.625 16.75 23.5 19.375 24.375"></path></g></g></g><g id="g-root-tx_cli_18mkz2m1hwfegw-stroke" data-item-order="1000000000" transform="translate(250, 247)"></g><g id="g-root-ic_text_5w1hq1hwterz-stroke" data-item-order="1000000000" transform="translate(414, 772)"><g id="ic_text_5w1hq1hwterz-stroke" fill="none" stroke-linecap="round" stroke-linejoin="round" stroke-miterlimit="4" stroke="#484848" stroke-width="2" stroke-opacity="1"><g><path d="M 30.05875 12.7C 30.383018 12.330893 30.460989 11.806056 30.258026 11.358623C 30.055065 10.91119 29.608814 10.624147 29.1175 10.625L 13.375 10.625C 12.884139 10.625131 12.438787 10.91254 12.23646 11.359763C 12.034131 11.806986 12.112282 12.331233 12.43625 12.7L 19.375 20.625L 19.375 27.66375C 19.374931 28.124859 19.628723 28.548557 20.035294 28.766092C 20.441864 28.983627 20.935177 28.959665 21.31875 28.703751L 22.56875 27.869999C 22.916338 27.638094 23.125061 27.247849 23.125 26.83L 23.125 20.625ZM 31.875 28.127501L 36.875 28.127501M 29.375 31.877501L 36.875 31.877501M 29.375 35.627502L 36.875 35.627502M 26.875 25.625C 26.875 24.934643 27.434643 24.375 28.125 24.375L 38.125 24.375C 38.815353 24.375 39.375 24.934643 39.375 25.625L 39.375 38.125C 39.375 38.815353 38.815353 39.375 38.125 39.375L 28.125 39.375C 27.434643 39.375 26.875 38.815353 26.875 38.125ZM 30 12.75C 30.375 12.375 30.625 11.75 30.25 11.375C 29.875 11 29.625 10.5 29.125 10.625C 24 11.875 18.625 11.125 13.375 10.625C 12.875 10.625 12.625 11 12.25 11.375C 11.875 11.75 12.125 12.375 12.375 12.75C 14.875 15.25 17.25 17.875 19.375 20.625C 19 23 19.875 25.375 19.375 27.625C 19.25 28.125 19.625 28.625 20 28.75C 20.5 28.875 21 29 21.375 28.75C 21.625 28.375 22.125 28 22.625 27.875C 23 27.75 23.25 27.25 23.125 26.875C 22.75 24.75 22.75 22.625 23.125 20.625C 25.125 17.75 27.25 14.875 30 12.75M 31.875 28.125C 33.5 27.625 35.25 28.25 36.875 28.125M 29.375 31.875C 31.75 31.125 34.375 31.875 36.875 31.875M 29.375 35.625C 31.875 35.25 34.375 35.75 36.875 35.625M 26.875 25.625C 26.625 25 27.5 24.25 28.125 24.375C 31.375 25.125 34.75 24.125 38.125 24.375C 38.875 24.375 39.5 24.875 39.375 25.625C 38.75 29.75 39.125 34 39.375 38.125C 39.375 38.875 38.75 39.125 38.125 39.375C 34.875 40.375 31.5 39.375 28.125 39.375C 27.375 39.375 26.625 38.75 26.875 38.125C 28.25 34.25 27.375 29.75 26.875 25.625"></path></g></g></g><g id="g-root-tx_plugins_hyf05q1hws16z-stroke" data-item-order="1000000000" transform="translate(286, 775)"></g><g id="g-root-tx_reporter_mcd30u1hwtfk6-stroke" data-item-order="1000000000" transform="translate(450, 775)"></g><g id="g-root-ic_chlo_94nf661hwff9l-stroke" data-item-order="1000000000" transform="translate(214, 244)"><g id="ic_chlo_94nf661hwff9l-stroke" fill="none" stroke-linecap="round" stroke-linejoin="round" stroke-miterlimit="4" stroke="#484848" stroke-width="2" stroke-opacity="1"><g><path d="M 11.875 10.625L 38.125 10.625C 38.125 10.625 39.375 10.625 39.375 11.875L 39.375 38.125C 39.375 38.125 39.375 39.375 38.125 39.375L 11.875 39.375C 11.875 39.375 10.625 39.375 10.625 38.125L 10.625 11.875C 10.625 11.875 10.625 10.625 11.875 10.625M 18.75 33.75L 31.25 33.75M 24.766251 21.25C 24.379999 20.158751 23.178751 19.375 21.953751 19.375C 20.40045 19.375 19.141251 20.634199 19.141251 22.1875L 19.141251 27.8125C 19.141251 29.365801 20.40045 30.625 21.953751 30.625C 23.178751 30.625 24.379999 29.842499 24.766251 28.75M 28.983749 19.375L 28.983749 28.75C 28.983749 29.785534 29.823215 30.625 30.858749 30.625M 11.875 10.625C 20.5 9.25 29.375 10.75 38.125 10.625C 38.125 10.625 39.125 10.625 39.375 11.875C 41.375 20.375 38.25 29.5 39.375 38.125C 39.375 38.125 39.375 39.25 38.125 39.375C 29.375 40.125 20.625 39.125 11.875 39.375C 11.875 39.375 10.5 39.375 10.625 38.125C 11.625 29.375 11.875 20.5 10.625 11.875C 10.625 11.875 10.625 10.875 11.875 10.625M 18.75 33.75C 22.75 35 27.375 32.25 31.25 33.75M 24.75 21.25C 24.25 20.25 23.125 19.875 22 19.375C 20.5 18.75 19.125 20.625 19.125 22.25C 19.125 24 19.375 26 19.125 27.875C 19 29.375 20.5 31 22 30.625C 23.125 30.375 24.375 29.875 24.75 28.75M 29 19.375C 29.5 22.5 28.875 25.625 29 28.75C 29 29.75 29.875 30.5 30.875 30.625"></path></g></g></g><g id="g-root-tx_develope_1qehdhq1hwtgy4-stroke" data-item-order="1000000000" transform="translate(220, 137)"></g><g id="g-root-ic_pers_90wkni1hwuuiy-stroke" data-item-order="1000000000" transform="translate(414, 882)"><g id="ic_pers_90wkni1hwuuiy-stroke" fill="none" stroke-linecap="round" stroke-linejoin="round" stroke-miterlimit="4" stroke="#484848" stroke-width="2" stroke-opacity="1"><g><path d="M 18.9063 22.093737L 18.9063 18.343739M 12.031175 25.71875L 25.78125 25.71875M 26.90625 38.96875C 25.78125 35.71875 22.65625 33.34375 19.031261 33.34375C 15.406262 33.34375 12.156262 35.71875 11.031265 38.96875M 13.781175 27.09375C 13.906175 29.84375 16.156176 32.09375 18.906176 32.09375C 21.781176 32.09375 24.031126 29.84375 24.031126 26.96875L 24.031126 24.71875C 24.031126 21.843737 21.781176 19.593739 18.906176 19.593739C 16.156176 19.593739 13.906175 21.843737 13.781175 24.59375L 13.781175 27.09375ZM 31.46875 18.531261C 35.610878 18.531261 38.96875 16.852337 38.96875 14.781262C 38.96875 12.7102 35.610878 11.031265 31.46875 11.031265C 27.326626 11.031265 23.96875 12.7102 23.96875 14.781262C 23.96875 16.852337 27.326626 18.531261 31.46875 18.531261ZM 28.71875 23.90625C 29.59375 24.03125 30.46875 24.15625 31.46875 24.15625C 35.59375 24.15625 38.96875 22.53125 38.96875 20.406263L 38.96875 14.781262M 23.96875 14.781262L 23.96875 17.531263M 28.71875 29.53125C 29.59375 29.65625 30.46875 29.78125 31.46875 29.78125C 35.59375 29.78125 38.96875 28.15625 38.96875 26.03125L 38.96875 20.406263M 18.875 22.125C 18.75 20.875 19.125 19.625 18.875 18.375M 12 25.75C 16.5 24.75 21.375 27 25.75 25.75M 26.875 39C 26 35.625 22.5 32.25 19 33.375C 15.5 34.375 10.875 35.5 11 39M 13.75 27.125C 14.5 29.75 16.125 32.125 18.875 32.125C 21.75 32.125 24.375 29.875 24 27C 24 26.25 24 25.5 24 24.75C 24.25 21.875 21.75 19.375 18.875 19.625C 16.125 19.75 14.375 21.875 13.75 24.625C 14 25.375 14.125 26.375 13.75 27.125M 31.5 18.5C 35.625 18.125 38.875 16.875 39 14.75C 39 12.75 35.375 12.25 31.5 11C 27.5 9.75 23.625 12.75 24 14.75C 24.375 16.875 27.625 17 31.5 18.5M 28.75 23.875C 29.625 23.875 30.5 23.875 31.5 24.125C 35.375 25.5 38.625 22.5 39 20.375C 39.25 18.5 39.25 16.625 39 14.75M 24 14.75C 24 15.75 24 16.625 24 17.5M 28.75 29.5C 29.625 29.75 30.5 30 31.5 29.75C 35.5 28.875 39 28.125 39 26C 38.875 24.125 38.75 22.25 39 20.375"></path></g></g></g><g id="g-root-ic_code_18ntu321hwtg5h-stroke" data-item-order="1000000000" transform="translate(184, 134)"><g id="ic_code_18ntu321hwtg5h-stroke" fill="none" stroke-linecap="round" stroke-linejoin="round" stroke-miterlimit="4" stroke="#484848" stroke-width="2" stroke-opacity="1"><g><path d="M 21.437525 15.109387L 21.437525 12.234387C 21.437525 11.484387 21.937525 10.984383 22.6875 10.984383L 34.6875 10.984383C 34.9375 10.984383 35.3125 11.109383 35.4375 11.234383L 38.4375 13.734387C 38.6875 13.984387 38.9375 14.359387 38.9375 14.734387L 38.9375 30.359375C 38.9375 31.109375 38.4375 31.609375 37.6875 31.609375L 28.3125 31.609375M 10 10M 26.4375 16.234364L 24.5625 18.109364L 26.4375 19.984364M 10 10M 33.9375 16.234364L 35.8125 18.109364L 33.9375 19.984364M 10 10M 28.9375 20.6094L 31.4375 14.9844M 26.9375 39.015625C 25.8125 35.765625 22.6875 33.390625 19.062475 33.390625C 15.437475 33.390625 12.187475 35.765625 11.06247 39.015625M 18.9375 22.140614L 18.9375 18.390614M 12.062375 25.765625L 25.812376 25.765625M 13.812375 27.140625C 13.937375 29.890625 16.187376 32.140625 18.937374 32.140625C 21.812374 32.140625 24.062374 29.890625 24.062374 27.015625L 24.062374 24.765625C 24.062374 21.890614 21.812374 19.640614 18.937374 19.640614C 16.187376 19.640614 13.937375 21.890614 13.812375 24.640625L 13.812375 27.140625ZM 21.5 15.125C 21.75 14.25 21.5 13.125 21.5 12.25C 21.375 11.5 22 10.75 22.75 11C 26.375 12.375 30.75 10.625 34.75 11C 34.875 11 35.375 11.125 35.5 11.25C 36.625 11.75 37.25 13.125 38.5 13.75C 38.625 14 39 14.375 39 14.75C 38.375 19.875 40.75 25.5 39 30.375C 38.625 31 38.5 31.625 37.75 31.625C 34.625 31.5 31.375 31 28.375 31.625M 10 10M 26.5 16.25C 25.75 16.875 25.375 17.75 24.625 18.125C 25.375 18.5 25.625 19.625 26.5 20M 10 10M 34 16.25C 34.625 16.75 35.125 17.5 35.875 18.125C 35.25 18.75 34.5 19.25 34 20M 10 10M 29 20.625C 29.5 18.625 30.25 16.625 31.5 15M 27 39C 26.125 35.625 22.625 33.125 19 33.375C 15.5 33.625 12.5 35.875 11 39M 19 22.125C 18.625 21 18.875 19.625 19 18.375M 12 25.75C 16.25 27.5 21.25 26 25.75 25.75M 13.75 27.125C 13.125 29.75 16.25 32.625 18.875 32.125C 21.75 31.625 24.625 29.875 24 27C 23.875 26.25 24 25.5 24 24.75C 24.25 21.875 21.75 19.875 18.875 19.625C 16.25 19.375 14.875 22.125 13.75 24.625C 13.75 25.5 13.625 26.375 13.75 27.125"></path></g></g></g><g id="g-root-ic_colu_zrkfwu1hwntoj-stroke" data-item-order="1000000000" transform="translate(178, 503)"><g id="ic_colu_zrkfwu1hwntoj-stroke" fill="none" stroke-linecap="round" stroke-linejoin="round" stroke-miterlimit="4" stroke="#484848" stroke-width="2" stroke-opacity="1"><g><path d="M 20.166012 12.592775C 20.166012 11.902412 19.606375 11.342775 18.916012 11.342775L 12.524412 11.342775C 11.834063 11.342775 11.274412 11.902412 11.274412 12.592775L 11.274412 18.984375C 11.274412 19.674725 11.834063 20.234375 12.524412 20.234375L 18.916012 20.234375C 19.606375 20.234375 20.166012 19.674725 20.166012 18.984375L 20.166012 12.592775ZM 38.349625 12.587888C 38.349625 11.897537 37.790001 11.337888 37.099625 11.337888L 30.708 11.337888C 30.017624 11.337888 29.458 11.897537 29.458 12.587888L 29.458 18.979488C 29.458 19.669849 30.017624 20.229488 30.708 20.229488L 37.099625 20.229488C 37.790001 20.229488 38.349625 19.669849 38.349625 18.979488L 38.349625 12.587888ZM 20.166012 31.015625C 20.166012 30.325251 19.606375 29.765625 18.916012 29.765625L 12.524412 29.765625C 11.834063 29.765625 11.274412 30.325251 11.274412 31.015625L 11.274412 37.407249C 11.274412 38.097626 11.834063 38.657249 12.524412 38.657249L 18.916012 38.657249C 19.606375 38.657249 20.166012 38.097626 20.166012 37.407249L 20.166012 31.015625ZM 10 10M 15.722651 20.234375L 15.722662 29.7705M 10 10M 33.90625 20.234375L 33.90625 38.662125M 10 10M 29.458 20.234375L 20.04315 29.64925M 10 10M 29.086874 33.837875L 33.90625 38.657249L 38.725624 33.837875M 20.125 12.625C 20.125 11.875 19.625 11.25 18.875 11.375C 16.875 11.75 14.625 11.375 12.5 11.375C 11.875 11.375 11.5 11.875 11.25 12.625C 10.625 14.625 11 16.875 11.25 19C 11.375 19.625 11.875 20.125 12.5 20.25C 14.625 20.375 16.875 20.875 18.875 20.25C 19.625 20 20.25 19.625 20.125 19C 20 16.875 20.75 14.625 20.125 12.625M 38.375 12.625C 38.375 11.875 37.75 11.375 37.125 11.375C 35 11.25 32.875 11.5 30.75 11.375C 30 11.25 29.25 11.875 29.5 12.625C 30.125 14.625 29.75 16.875 29.5 19C 29.375 19.625 30 20.375 30.75 20.25C 32.75 19.75 35 20.75 37.125 20.25C 37.75 20 38.375 19.625 38.375 19C 38.375 16.875 38.25 14.75 38.375 12.625M 20.125 31C 20.125 30.375 19.625 29.625 18.875 29.75C 16.875 30.375 14.625 29.5 12.5 29.75C 11.875 29.875 11.125 30.375 11.25 31C 11.5 33.125 11.5 35.25 11.25 37.375C 11.25 38.125 11.875 38.875 12.5 38.625C 14.625 38.125 16.75 38.75 18.875 38.625C 19.625 38.625 19.875 38.125 20.125 37.375C 20.875 35.375 19.375 33 20.125 31M 10 10M 15.75 20.25C 16.875 23.25 15.875 26.625 15.75 29.75M 10 10M 33.875 20.25C 34 26.375 34.125 32.5 33.875 38.625M 10 10M 29.5 20.25C 26.125 23.125 23.5 26.875 20 29.625M 10 10M 29.125 33.875C 31 35.125 32.625 36.75 33.875 38.625C 35.625 37.125 37 35.375 38.75 33.875"></path></g></g></g></g></g><path id="w4my55a1iglk3r" d="M65.283 12.757a.35.35 0 0 0 .584.157l5.203-5.141-6.183 3.523.396 1.461zm-2.216-11.7a.35.35 0 0 0-.522.305v3.111l3.276-1.868-2.754-1.548zm3.728 2.105l-4.25 2.421v2.445l6.391-3.644-2.141-1.222zm4.708 3.303a.35.35 0 0 0 0-.609l-1.592-.9-7.365 4.199v1.782a.35.35 0 0 0 .523.305l8.435-4.777z M44.542 2.513c0-.433.355-.783.792-.783s.792.35.792.783-.355.783-.792.783-.792-.35-.792-.783zm59.171 0c0-.433.355-.783.792-.783s.792.35.792.783-.355.783-.792.783-.792-.35-.792-.783zm-85.951 7.636h-1.27v-.487c-.276.201-.864.609-1.881.609-1.202 0-2.274-.794-2.137-2.078.118-1.106 1.153-1.584 1.848-1.727l2.17-.345c0-.539-.29-.956-1.064-1.006s-1.21.305-1.571 1.017l-1.124-.605c1.218-2.631 5.029-1.764 5.029.414v4.207zm-1.27-2.86c.006.396-.062 1.112-.819 1.59-.587.37-1.841.299-1.903-.395-.049-.555.461-.791.906-.898l1.816-.297zm72.662 2.86h-1.27v-.487c-.276.201-.864.609-1.881.609-1.202 0-2.274-.794-2.137-2.078.118-1.106 1.153-1.584 1.848-1.727l2.17-.345c0-.539-.29-.956-1.064-1.006s-1.21.305-1.571 1.017l-1.124-.605c1.218-2.631 5.029-1.764 5.029.414v4.207zm-1.27-2.86c.006.396-.062 1.112-.82 1.59-.587.37-1.841.299-1.903-.395-.049-.555.461-.791.906-.898l1.816-.297zM99.096 10.149H97.85v-8.45h1.246v4.895l2.68-2.559h1.738l-2.633 2.535 2.715 3.578h-1.556l-2.077-2.707-.867.844v1.863zm6.053-6.114h-1.255v6.113h1.255V4.035zm-59.2 0h-1.255v6.113h1.255V4.035zm5.584 6.113V1.697h1.255v2.695c.361-.346 1-.485 1.47-.485 1.452 0 2.477 1.082 2.457 2.448v3.792h-1.27v-3.68c0-.408-.214-1.339-1.315-1.339-.968 0-1.342.756-1.342 1.339v3.681h-1.255zm-4.76-4.894V4.039h.621a.45.45 0 0 0 .45-.45v-.855h1.251v1.305h1.309v1.215h-1.309v3.109c0 .293.105.664.648.664.365 0 .531-.035.736-.07v1.137s-.361.113-.857.113c-1.398 0-1.777-1.051-1.777-1.788V5.254h-1.071zM36.528 4.039h-1.394l2.191 6.106h1.125l1.234-3.918 1.238 3.918h1.129l2.188-6.106h-1.383l-1.359 3.93-1.256-3.93h-1.124l-1.242 3.957-1.348-3.957zM26.212 7.141c-.02 1.566 1.187 3.129 3.223 3.129 1.566 0 2.383-.918 2.734-1.719L31.172 8c-.315.399-.801 1.094-1.738 1.094-1.145 0-1.825-.781-1.891-1.52h4.625c.074-.284.148-.995-.03-1.559-.336-1.064-1.221-2.102-2.839-2.102s-3.088 1.152-3.088 3.227zm1.363-.75h3.348c-.055-.43-.566-1.301-1.623-1.301a1.79 1.79 0 0 0-1.725 1.301zm-8.758.75c.038 1.758 1.277 3.133 3.145 3.133 1.074 0 1.723-.477 1.961-.672v.547h1.242V1.703h-1.258v2.888c-.414-.36-1.062-.68-1.93-.68-1.91 0-3.198 1.473-3.16 3.23zm1.309-.08c0 1.119.723 1.978 1.836 1.978a1.88 1.88 0 0 0 1.94-1.904c0-1.371-1.011-1.99-1.972-1.99s-1.805.798-1.805 1.916zm76.683-.028C96.771 5.275 95.532 3.9 93.664 3.9c-1.074 0-1.723.477-1.961.672v-.547h-1.242v8.22h1.258V9.583c.414.36 1.063.68 1.93.68 1.91 0 3.198-1.473 3.16-3.23zm-1.309.08c0-1.119-.723-1.978-1.836-1.978a1.88 1.88 0 0 0-1.94 1.904c0 1.371 1.011 1.99 1.972 1.99S95.5 8.231 95.5 7.113zM106.441 10.173V4.036h1.254v.382c.361-.346 1-.485 1.47-.485 1.452 0 2.477 1.082 2.457 2.448v3.792h-1.27V6.492c0-.408-.214-1.339-1.315-1.339-.969 0-1.342.756-1.342 1.339v3.681h-1.254zm-30.383-.021V1.824h1.084l4.215 5.777V1.824h1.32v8.328h-1.094l-4.207-5.796v5.796h-1.319zM5.24 10.149H4V2.377h1.014l2.664 3.597 2.654-3.592h1.03v7.766h-1.256V4.762L7.678 8.068 5.24 4.742v5.407z" transform="translate(20, 948)" fill="#80808088" stroke="none"></path></svg>